<svg width="24" height="23" viewBox="0 0 24 23" fill="none" xmlns="http://www.w3.org/2000/svg">
<g clip-path="url(#clip0_478_5063)">
<g clip-path="url(#clip1_478_5063)">
<mask id="mask0_478_5063" style="mask-type:luminance" maskUnits="userSpaceOnUse" x="0" y="0" width="24" height="23">
<path d="M23.1863 0.237305H0.878906V22.545H23.1863V0.237305Z" fill="white"/>
</mask>
<g mask="url(#mask0_478_5063)">
<path d="M17.5768 -0.477051L17.3454 -0.343533H17.3418L17.2598 -0.29408H17.2568L1.49609 8.80473L3.573 10.0098L19.6522 0.730521L17.5768 -0.477051Z" fill="#DC00F9"/>
<path d="M21.4895 10.5406C20.711 10.4424 19.923 10.6223 19.2642 11.0484C16.9851 12.3642 15.102 15.581 15.1104 18.2394C15.1178 20.7614 16.8233 21.7504 19.0323 20.476C21.3287 19.1508 23.1911 15.9222 23.1861 13.2791C23.1767 12.0236 22.7242 10.7953 21.4895 10.5406ZM20.4104 16.9295L18.1164 18.2522C18.0761 18.277 18.0292 18.2889 17.9818 18.2864C17.9346 18.2838 17.8892 18.2669 17.8517 18.2381C17.8142 18.2092 17.7864 18.1696 17.7718 18.1245C17.7573 18.0795 17.7567 18.0311 17.7703 17.9858L18.2223 16.3539C18.102 16.2591 18.007 16.1362 17.9456 15.9959C17.8842 15.8557 17.8583 15.7025 17.8702 15.5499C17.8869 15.1651 17.9959 14.79 18.188 14.4563C18.38 14.1225 18.6497 13.8399 18.974 13.6321C19.1053 13.5287 19.2646 13.4669 19.4315 13.4547C19.5982 13.4426 19.7648 13.4807 19.9098 13.5642C20.0547 13.6476 20.1713 13.7725 20.2446 13.9229C20.3179 14.0732 20.3445 14.242 20.321 14.4075C20.3112 14.8164 20.1894 15.2148 19.9688 15.5592L20.5014 16.6155C20.5296 16.6695 20.5357 16.7323 20.5188 16.7907C20.5019 16.8492 20.463 16.8989 20.4104 16.9295Z" fill="#DC00F9"/>
<path d="M19.0013 10.5966C19.5278 10.2831 20.1115 10.077 20.7181 9.99041C20.1347 9.66453 20.3147 9.75004 20.0847 9.64027C19.2525 9.23775 18.2308 9.53645 17.4243 10.0022C15.1852 11.2949 13.2625 14.5022 13.2705 17.1928C13.2749 18.1714 13.5513 19.237 14.397 19.7305L14.936 20.0371C14.6983 19.4684 14.5796 18.857 14.5873 18.2406C14.5784 15.4062 16.6019 11.9822 19.0013 10.5966Z" fill="#DC00F9"/>
<path d="M1.2373 9.25879L1.27289 22.0555L3.34385 23.2586L3.30727 10.4629L1.2373 9.25879Z" fill="#DC00F9"/>
<path d="M12.9483 18.5911L12.9458 18.5847C12.6288 18.7691 12.9147 18.6065 12.9483 18.5911Z" fill="#DC00F9"/>
<path d="M12.744 17.1976C12.739 14.451 14.6759 10.991 17.1628 9.55207C17.9669 9.0309 18.941 8.8398 19.8825 9.01849C19.8989 9.02294 19.9162 9.02491 19.932 9.02937L19.9083 1.18164L3.83008 10.4629L3.86518 23.221L12.8156 18.057C12.7722 17.7725 12.7483 17.4853 12.744 17.1976ZM14.2918 5.99955C14.2918 5.95393 14.3037 5.90913 14.3267 5.86969C14.3497 5.83026 14.3827 5.7976 14.4223 5.77505L18.4817 3.43014C18.5213 3.40731 18.5662 3.3953 18.6119 3.3953C18.6576 3.3953 18.7026 3.40731 18.7422 3.43014C18.7811 3.45359 18.8133 3.48646 18.836 3.52571C18.8588 3.56495 18.8712 3.6093 18.8723 3.65464L18.8778 5.97879C18.8772 6.0243 18.8649 6.06889 18.8421 6.10824C18.8192 6.14757 18.7865 6.18033 18.7472 6.2033L14.6829 8.55316C14.6434 8.57623 14.5984 8.58838 14.5526 8.58838C14.5068 8.58838 14.4618 8.57623 14.4223 8.55316C14.383 8.53028 14.3504 8.49762 14.3275 8.45836C14.3046 8.4191 14.2923 8.37458 14.2918 8.32915V5.99955ZM7.8306 19.041L5.41248 20.4375C5.37397 20.4607 5.32987 20.473 5.28491 20.473C5.23995 20.473 5.19584 20.4607 5.15733 20.4375C5.11745 20.4149 5.08402 20.3825 5.06029 20.3432C5.03657 20.304 5.02331 20.2593 5.02181 20.2135V18.9208C5.02116 18.8745 5.03287 18.829 5.05574 18.7888C5.0786 18.7485 5.11178 18.715 5.15186 18.6919L7.56455 17.3004C7.60385 17.2765 7.64883 17.2636 7.69481 17.263C7.7408 17.2624 7.78611 17.2742 7.82602 17.297C7.86591 17.3199 7.89894 17.3531 7.92166 17.393C7.94439 17.4331 7.95596 17.4784 7.9552 17.5244L7.96065 18.8166C7.96125 18.8622 7.94944 18.9072 7.92655 18.9467C7.90366 18.9862 7.87051 19.0188 7.8306 19.041ZM7.95027 14.2939L5.27205 15.8466C5.2325 15.8696 5.18754 15.8818 5.14175 15.8818C5.09597 15.8818 5.05098 15.8696 5.01143 15.8466C4.9714 15.8245 4.93812 15.7921 4.91511 15.7527C4.89212 15.7132 4.88028 15.6682 4.88089 15.6226L4.87595 12.7252C4.87531 12.679 4.88701 12.6332 4.90986 12.5929C4.93272 12.5525 4.9659 12.5191 5.006 12.4959L7.68471 10.9481C7.72499 10.9275 7.76955 10.9168 7.81476 10.9168C7.85996 10.9168 7.90452 10.9275 7.94482 10.9481C7.98506 10.9711 8.0184 11.0046 8.04136 11.0449C8.06432 11.0853 8.07607 11.1311 8.07538 11.1775L8.08033 14.0698C8.08036 14.1153 8.06834 14.16 8.0455 14.1993C8.02265 14.2387 7.9898 14.2713 7.95027 14.2939ZM11.6239 16.703C11.6245 16.7486 11.6127 16.7935 11.5898 16.833C11.567 16.8724 11.5338 16.905 11.4938 16.927L9.08119 18.3235C9.04164 18.3466 8.99668 18.3588 8.95089 18.3588C8.90511 18.3588 8.86012 18.3466 8.82057 18.3235C8.7805 18.3015 8.74718 18.2691 8.72417 18.2297C8.70117 18.1902 8.68937 18.1452 8.69003 18.0995L8.68509 16.8074C8.68548 16.7612 8.69761 16.7159 8.72037 16.6758C8.74312 16.6356 8.77575 16.602 8.81514 16.5779L11.2333 15.1814C11.2736 15.161 11.3182 15.1503 11.3636 15.1503C11.4089 15.1503 11.4535 15.161 11.4938 15.1814C11.5332 15.2055 11.5658 15.2391 11.5886 15.2793C11.6114 15.3194 11.6235 15.3647 11.6239 15.4109V16.703Z" fill="#DC00F9"/>
</g>
</g>
</g>
<defs>
<clipPath id="clip0_478_5063">
<rect width="22.3077" height="22.3077" fill="white" transform="translate(0.878906 0.237305)"/>
</clipPath>
<clipPath id="clip1_478_5063">
<rect width="22.3077" height="22.3077" fill="white" transform="translate(0.878906 0.237305)"/>
</clipPath>
</defs>
</svg>
