<svg width="24" height="23" viewBox="0 0 24 23" fill="none" xmlns="http://www.w3.org/2000/svg">
<g clip-path="url(#clip0_478_5039)">
<g clip-path="url(#clip1_478_5039)">
<g clip-path="url(#clip2_478_5039)">
<mask id="mask0_478_5039" style="mask-type:luminance" maskUnits="userSpaceOnUse" x="0" y="0" width="24" height="23">
<path d="M23.0855 0.237305H0.776367V22.5449H23.0855V0.237305Z" fill="white"/>
</mask>
<g mask="url(#mask0_478_5039)">
<path d="M15.7716 12.7487C14.8882 12.5311 13.9726 12.4755 13.0693 12.5846H13.0651C12.0517 12.6855 10.7138 13.1378 10.0398 13.9234L10.0356 13.9285C9.77681 14.2097 9.62823 14.5749 9.61719 14.9568C9.6395 15.0033 9.51121 15.8661 10.8565 16.6434C11.8303 17.1384 12.9072 17.3965 13.9995 17.3965C15.0918 17.3965 16.1688 17.1384 17.1425 16.6434C17.8821 16.2139 18.4632 15.5742 18.3438 14.7374C18.1564 13.6868 16.8082 12.9989 15.7716 12.7487ZM16.0505 16.0559C16.0241 16.1145 15.9755 16.1602 15.9154 16.1831C15.8552 16.206 15.7884 16.2039 15.7298 16.1776L15.2249 15.9507C15.0312 16.0347 14.8228 16.0788 14.6118 16.0804C14.3509 16.0849 14.0932 16.0219 13.8638 15.8977C13.8347 15.8826 13.8091 15.8617 13.7884 15.8364C13.7677 15.811 13.7523 15.7817 13.7432 15.7503C13.7341 15.7189 13.7315 15.6859 13.7354 15.6535C13.7394 15.6209 13.7499 15.5896 13.7664 15.5613C13.7829 15.533 13.8049 15.5084 13.8312 15.4888C13.8574 15.4693 13.8873 15.4552 13.9191 15.4475C13.9509 15.4399 13.984 15.4388 14.0162 15.4442C14.0486 15.4497 14.0794 15.4616 14.1069 15.4794C14.2641 15.5575 14.4373 15.598 14.6129 15.598C14.7885 15.598 14.9616 15.5575 15.1189 15.4794C15.2217 15.4199 15.2584 15.3594 15.2584 15.3255C15.2584 15.2915 15.2226 15.2325 15.1189 15.1735C14.9619 15.0968 14.7895 15.057 14.6147 15.057C14.44 15.057 14.2677 15.0968 14.1106 15.1735C13.8792 15.2934 13.6223 15.356 13.3617 15.356C13.1011 15.356 12.8443 15.2934 12.6128 15.1735C12.5048 15.1203 12.4129 15.0395 12.3466 14.9391C12.2802 14.8386 12.2419 14.7223 12.2353 14.6021C12.2376 14.5006 12.267 14.4016 12.3204 14.3153L12.048 14.1931C11.9906 14.1658 11.9462 14.1172 11.9242 14.0576C11.9023 13.9981 11.9046 13.9323 11.9307 13.8743C11.9567 13.8163 12.0044 13.771 12.0636 13.7478C12.1227 13.7247 12.1885 13.7256 12.247 13.7505L12.7504 13.9769C12.9678 13.8862 13.2022 13.8439 13.4375 13.8527C13.6728 13.8615 13.9034 13.9214 14.1134 14.028C14.143 14.0429 14.1693 14.0637 14.1906 14.0891C14.2119 14.1145 14.2277 14.144 14.2372 14.1758C14.2466 14.2076 14.2495 14.2409 14.2455 14.2738C14.2416 14.3067 14.2309 14.3385 14.2142 14.3672C14.1975 14.3958 14.1751 14.4208 14.1483 14.4404C14.1216 14.46 14.0912 14.474 14.0589 14.4814C14.0266 14.4888 13.9931 14.4896 13.9605 14.4835C13.9279 14.4775 13.8969 14.4648 13.8694 14.4464C13.7124 14.3698 13.5401 14.33 13.3654 14.33C13.1908 14.33 13.0184 14.3698 12.8615 14.4464C12.7573 14.5064 12.722 14.5677 12.722 14.6012C12.722 14.6347 12.7573 14.6942 12.8578 14.7522C13.0148 14.8308 13.188 14.8717 13.3636 14.8717C13.5391 14.8717 13.7123 14.8308 13.8694 14.7522C14.1005 14.6332 14.3566 14.571 14.6166 14.571C14.8766 14.571 15.1328 14.6332 15.3639 14.7522C15.4722 14.8054 15.5645 14.8864 15.6311 14.9869C15.6978 15.0875 15.7365 15.2041 15.7432 15.3245C15.7412 15.4268 15.7114 15.5265 15.6573 15.6132L15.9282 15.735C15.9869 15.7614 16.0327 15.81 16.0555 15.8702C16.0784 15.9304 16.0769 15.9971 16.0505 16.0559Z" fill="#DC00F9"/>
<path d="M12.4721 1.42104C12.8505 1.27136 12.9699 1.0654 12.6147 0.859932C12.4045 0.755354 12.1728 0.700928 11.9379 0.700928C11.703 0.700928 11.4714 0.755354 11.261 0.859932C11.1318 0.935241 11.0547 1.02916 11.0547 1.11098C11.0552 1.34434 11.7432 1.70415 12.4721 1.42104Z" fill="#DC00F9"/>
<path d="M17.3834 17.0641C15.7835 17.8806 13.9438 18.0966 12.1983 17.6725C11.6423 17.548 11.1077 17.3428 10.6112 17.0636C10.2307 16.8498 9.89142 16.5697 9.60938 16.2366V16.3933C9.61069 16.5813 9.64958 16.7672 9.72375 16.94C10.3833 18.5205 13.2177 19.0053 15.0051 18.7688C16.0335 18.6734 17.0075 18.2632 17.7943 17.5941C17.9607 17.4457 18.096 17.2658 18.1925 17.0648C18.2889 16.8638 18.3444 16.6456 18.3558 16.423V16.2613C18.08 16.5825 17.751 16.854 17.3834 17.0641Z" fill="#DC00F9"/>
<path d="M18.2432 17.8336C18.2726 17.8377 18.3012 17.8471 18.3273 17.8615C18.4847 17.9386 18.6577 17.9786 18.833 17.9786C19.0084 17.9786 19.1814 17.9386 19.3388 17.8615C19.3472 17.8565 19.3559 17.8522 19.3649 17.8485C19.4504 17.7941 19.4811 17.7401 19.4811 17.709C19.4811 17.6779 19.4448 17.6161 19.3416 17.5542C19.081 17.4299 18.7833 17.4077 18.5071 17.492C18.4723 17.5449 18.4351 17.5965 18.3951 17.6481C18.3654 17.6881 18.3343 17.7272 18.3022 17.7658C18.2813 17.7881 18.2655 17.8113 18.2432 17.8336Z" fill="#DC00F9"/>
<path d="M7.60063 17.7889C7.43282 18.634 8.06087 19.3132 8.81164 19.7441C10.9807 20.9993 14.596 20.6246 15.9041 19.0933C15.7302 19.1375 15.4393 19.1947 15.1901 19.2328C13.0053 19.5619 9.7674 18.8846 9.20398 16.9168C9.1536 16.7478 9.12747 16.5725 9.12635 16.3962V16.2432C8.42859 16.569 7.75729 17.0139 7.60063 17.7889Z" fill="#DC00F9"/>
<path d="M3.43134 20.2056C4.69023 20.6612 6.05033 20.7611 7.36227 20.4942C7.18281 20.1925 7.08507 19.849 7.0787 19.498V19.2191C6.89756 19.2906 6.70488 19.3283 6.51016 19.3307C6.25082 19.3342 5.99485 19.2716 5.76638 19.1489C5.73766 19.1337 5.71226 19.1129 5.69173 19.0877C5.6712 19.0625 5.65594 19.0334 5.64685 19.0023C5.63776 18.971 5.63502 18.9384 5.63882 18.9062C5.6426 18.8738 5.65285 18.8427 5.66892 18.8144C5.68498 18.7862 5.70656 18.7614 5.73236 18.7416C5.75817 18.7219 5.78769 18.7075 5.81915 18.6994C5.85062 18.6914 5.88337 18.6896 5.91551 18.6943C5.94766 18.6991 5.97852 18.7103 6.00625 18.7272C6.16369 18.8044 6.3367 18.8445 6.51203 18.8445C6.68736 18.8445 6.86037 18.8044 7.01781 18.7272C7.02658 18.7225 7.03556 18.7181 7.04477 18.7142C7.05808 18.704 7.07065 18.6928 7.08242 18.6808V18.4693C7.06581 18.4519 7.04743 18.4363 7.02758 18.4227C6.86943 18.3447 6.69552 18.3038 6.51915 18.3032C6.34279 18.3027 6.16861 18.3424 6.00997 18.4195C5.77921 18.5386 5.52332 18.6008 5.26364 18.6008C5.00395 18.6008 4.74802 18.5386 4.51727 18.4195C4.41238 18.3692 4.32239 18.2925 4.25612 18.1969C4.18986 18.1013 4.14961 17.9901 4.13934 17.8743C4.1368 17.7641 4.16549 17.6554 4.22207 17.5609L3.95105 17.4391C3.89368 17.4119 3.84926 17.3633 3.82732 17.3037C3.80537 17.2442 3.80766 17.1783 3.83371 17.1203C3.85974 17.0624 3.90746 17.017 3.9666 16.9938C4.02574 16.9707 4.0916 16.9717 4.15004 16.9965L4.65256 17.2225C4.86996 17.1321 5.10434 17.0896 5.33967 17.098C5.57501 17.1066 5.8057 17.1658 6.01601 17.2718C6.0718 17.3039 6.11254 17.3569 6.12928 17.419C6.14602 17.4812 6.13739 17.5474 6.10527 17.6032C6.07316 17.659 6.0202 17.6998 5.95804 17.7165C5.89588 17.7332 5.8296 17.7246 5.77381 17.6924C5.61664 17.6159 5.44406 17.576 5.2692 17.576C5.09433 17.576 4.92175 17.6159 4.76458 17.6924C4.67625 17.7451 4.62233 17.8072 4.62512 17.8565C4.62512 17.8904 4.66789 17.9495 4.75808 17.996C4.91572 18.0728 5.08875 18.1127 5.26408 18.1127C5.43942 18.1127 5.61246 18.0728 5.7701 17.996C5.97377 17.8935 6.19657 17.8346 6.42431 17.823C6.65203 17.8115 6.87969 17.8476 7.09266 17.9291C7.09266 17.9235 7.11126 17.7561 7.11452 17.7394C7.26124 17.0889 7.65972 16.5231 8.22274 16.1659L8.2009 16.1566C7.15683 15.8133 6.05037 15.7022 4.9589 15.8311C3.97633 15.9188 3.03766 16.2785 2.24825 16.8701C2.03446 17.0231 1.85768 17.2221 1.7309 17.4524C1.60411 17.6828 1.53055 17.9386 1.51563 18.2011C1.51423 19.1782 2.52857 19.8583 3.43134 20.2056Z" fill="#DC00F9"/>
<path d="M7.68648 20.9285C6.19071 21.2783 4.62473 21.1756 3.18748 20.6334C2.54439 20.4051 1.97167 20.0136 1.52557 19.4972C1.52092 19.4916 1.51441 19.486 1.50977 19.4805V19.6446C1.50977 20.2755 1.95093 20.8779 2.75189 21.3405C3.64348 21.7855 4.6188 22.0379 5.61437 22.081C6.60994 22.1242 7.60344 21.9573 8.53022 21.5911C8.35249 21.4833 8.18169 21.3645 8.01884 21.2353C7.90177 21.1402 7.79077 21.0376 7.68648 20.9285Z" fill="#DC00F9"/>
<path d="M16.3175 19.3559C16.0543 19.6719 15.7364 19.938 15.379 20.1415C14.3252 20.7027 13.147 20.9891 11.9533 20.9741H11.9445C10.7689 20.9919 9.60787 20.713 8.5686 20.1633C8.21837 19.9662 7.903 19.7127 7.63514 19.4131C7.61236 19.387 7.58867 19.3619 7.56543 19.3354V19.4976C7.58347 19.7612 7.65854 20.0176 7.78543 20.2493C7.91233 20.4809 8.08803 20.6822 8.30038 20.8393C9.85862 22.1363 13.1188 22.3426 15.0931 21.1902C15.7077 20.8323 16.3087 20.2466 16.3152 19.5349C16.3142 19.5303 16.3175 19.4042 16.3175 19.3559Z" fill="#DC00F9"/>
<path d="M21.152 19.6782C20.2001 20.0857 19.172 20.2848 18.1368 20.2621C17.6531 20.2613 17.1706 20.2146 16.6957 20.1226C16.6932 20.1269 16.6911 20.1312 16.6892 20.1357C16.5757 20.4333 16.406 20.7063 16.1895 20.9399C17.909 21.449 19.758 21.2819 21.3583 20.4727C22.1486 20.0138 22.5819 19.4217 22.5819 18.8047V18.6401C22.5726 18.6513 22.5591 18.6616 22.5498 18.6732C22.1671 19.1109 21.6888 19.4547 21.152 19.6782Z" fill="#DC00F9"/>
<path d="M21.3447 15.6655C20.9181 15.4297 20.4632 15.2491 19.991 15.128C19.6149 15.0358 19.232 14.9736 18.8461 14.9421V14.9565C18.8461 14.9607 18.8461 14.9654 18.8461 14.9696V14.977L18.8419 16.4232C18.8389 16.6042 18.8106 16.7838 18.7578 16.9569V16.9643C19.0446 16.9419 19.332 17.0012 19.5866 17.1354C19.6951 17.1889 19.7875 17.2703 19.8541 17.3714C19.9207 17.4723 19.9593 17.5891 19.9659 17.71C19.9636 17.8117 19.934 17.9108 19.8804 17.9973L20.151 18.119C20.2083 18.1463 20.2528 18.1949 20.2747 18.2545C20.2966 18.314 20.2943 18.3798 20.2683 18.4378C20.2423 18.4958 20.1946 18.5411 20.1354 18.5643C20.0762 18.5874 20.0104 18.5865 19.952 18.5617L19.449 18.3357C19.2542 18.4194 19.0446 18.4632 18.8326 18.4644C18.5733 18.4681 18.3172 18.4055 18.0887 18.2826C18.0557 18.2634 18.0278 18.2364 18.0074 18.2041C17.987 18.1717 17.9748 18.1349 17.9716 18.0967C17.6217 18.3896 17.2284 18.6261 16.8058 18.7977C16.8006 19.5541 16.8058 19.5476 16.7979 19.6433C17.2847 19.7396 17.7803 19.785 18.2766 19.7786C19.1703 19.7871 20.0565 19.615 20.8822 19.2728C21.692 18.9204 22.4706 18.3506 22.5864 17.4701L22.5892 17.3613C22.5873 16.7281 22.1452 16.128 21.3447 15.6655Z" fill="#DC00F9"/>
<path d="M5.36152 11.5558C3.89067 11.678 1.73832 12.4948 1.74808 13.9466C1.74808 14.7783 2.49186 15.3798 3.23286 15.7596C3.76622 15.5478 4.32655 15.4116 4.89758 15.3547C6.11236 15.194 7.34798 15.3332 8.49657 15.7601C8.57792 15.7922 8.66022 15.8228 8.74064 15.8586C8.85546 15.7986 8.98469 15.7387 9.12694 15.6787L9.12927 14.9475V14.941C9.14294 14.5063 9.29378 14.0871 9.56021 13.7435L9.57042 13.7304C9.74851 13.5009 9.95788 13.2975 10.1925 13.1261C10.1994 13.121 10.2055 13.1155 10.2124 13.1099C9.34405 11.8277 7.04062 11.3908 5.36152 11.5558ZM8.18233 15.0423C8.16326 15.085 8.13221 15.1213 8.09294 15.1468C8.05366 15.1721 8.00783 15.1856 7.96105 15.1855C7.92687 15.1857 7.89306 15.1785 7.86203 15.164L7.35718 14.9377C7.16363 15.0213 6.95531 15.0652 6.74449 15.0669C6.48332 15.0717 6.22538 15.0089 5.9956 14.8847C5.96597 14.8699 5.93969 14.849 5.9184 14.8237C5.89711 14.7983 5.88125 14.7687 5.87181 14.7369C5.86236 14.7052 5.85954 14.6718 5.8635 14.6389C5.86746 14.606 5.87812 14.5742 5.89482 14.5456C5.91152 14.5169 5.93391 14.492 5.96062 14.4724C5.98732 14.4527 6.01777 14.4388 6.05008 14.4313C6.08239 14.424 6.11591 14.4231 6.1485 14.4292C6.1811 14.4352 6.21211 14.4479 6.23964 14.4664C6.39663 14.5447 6.56972 14.5855 6.7452 14.5855C6.92068 14.5855 7.09374 14.5447 7.25073 14.4664C7.35393 14.4063 7.39021 14.3464 7.39021 14.3129C7.39021 14.2795 7.35439 14.22 7.25073 14.16C7.09377 14.0831 6.92135 14.0432 6.74658 14.0432C6.57183 14.0432 6.39937 14.0831 6.24242 14.16C6.01108 14.2799 5.75433 14.3425 5.49376 14.3425C5.23319 14.3425 4.97645 14.2799 4.7451 14.16C4.63713 14.1069 4.54522 14.0261 4.47888 13.9258C4.41253 13.8254 4.37414 13.7092 4.36763 13.5891C4.37005 13.4876 4.39956 13.3885 4.45314 13.3023L4.18072 13.1801C4.15056 13.1678 4.1232 13.1496 4.10023 13.1264C4.07727 13.1033 4.0592 13.0758 4.04709 13.0456C4.03497 13.0153 4.02906 12.983 4.02972 12.9504C4.03039 12.9178 4.03759 12.8858 4.05092 12.856C4.06425 12.8263 4.08344 12.7996 4.10732 12.7774C4.13121 12.7553 4.15928 12.7382 4.18992 12.7271C4.22055 12.7161 4.25313 12.7112 4.28565 12.713C4.31818 12.7148 4.34998 12.7231 4.37923 12.7375L4.88317 12.9634C5.10046 12.8729 5.33479 12.8306 5.57003 12.8394C5.80526 12.8482 6.03579 12.908 6.24568 13.0146C6.29646 13.0491 6.33225 13.1016 6.34584 13.1615C6.35942 13.2214 6.34978 13.2842 6.31889 13.3373C6.28798 13.3904 6.23811 13.4297 6.17932 13.4475C6.12053 13.4652 6.05721 13.46 6.0021 13.4329C5.84515 13.3561 5.67269 13.3161 5.49793 13.3161C5.32318 13.3161 5.15075 13.3561 4.99379 13.4329C4.88966 13.4929 4.85434 13.5538 4.85434 13.5882C4.85434 13.6226 4.88966 13.6812 4.99008 13.7389C5.14715 13.8172 5.3203 13.858 5.49587 13.858C5.67142 13.858 5.84457 13.8172 6.00165 13.7389C6.23263 13.6194 6.48887 13.5571 6.74892 13.5571C7.00895 13.5571 7.26519 13.6194 7.49619 13.7389C7.60468 13.792 7.69704 13.8731 7.76371 13.9738C7.83039 14.0746 7.86898 14.1913 7.87551 14.312C7.8732 14.4139 7.84349 14.5133 7.7895 14.5998L8.06008 14.721C8.08926 14.7341 8.1156 14.7527 8.13756 14.7759C8.15952 14.799 8.1767 14.8264 8.18807 14.8562C8.19943 14.8861 8.20477 14.9179 8.20379 14.9499C8.2028 14.9818 8.19551 15.0132 8.18233 15.0423Z" fill="#DC00F9"/>
<path d="M1.74167 15.3863C1.75037 15.7448 1.88162 16.0892 2.11355 16.3626C2.29231 16.2319 2.48047 16.1146 2.67652 16.0116C2.32083 15.8064 2.00421 15.54 1.74121 15.2246L1.74167 15.3863Z" fill="#DC00F9"/>
<path d="M22.9453 8.28749C22.1304 7.43398 21.7036 6.63811 21.679 5.92501C21.6509 5.65468 21.5536 5.39616 21.3964 5.17442C21.2393 4.95268 21.0276 4.77526 20.7818 4.65921C20.1572 4.32476 19.4514 4.17174 18.7443 4.21755C17.9227 4.24287 17.1185 4.46055 16.3963 4.85306C16.3797 4.86288 16.3641 4.87425 16.3498 4.88699C15.8219 4.53397 15.1953 4.35839 14.5608 4.38581C13.9264 4.41323 13.3172 4.64221 12.8218 5.03948C12.8218 4.26454 12.8246 3.22646 12.8269 1.80349C12.8209 1.80721 12.8125 1.80812 12.806 1.81138C12.535 1.94161 12.2378 2.00884 11.9371 2.00795C11.6364 2.00706 11.3397 1.93809 11.0693 1.80627C11.0637 1.80349 11.0572 1.80259 11.0516 1.7998L11.0479 5.11665C10.5609 4.70411 9.95432 4.45905 9.31747 4.4177C8.68063 4.37635 8.04738 4.54089 7.5112 4.88699C7.49447 4.87405 7.47658 4.86269 7.45774 4.85306C6.73714 4.46108 5.93469 4.2434 5.11478 4.21755C5.04691 4.2129 4.97905 4.2129 4.91118 4.2129C4.27012 4.20085 3.6368 4.3546 3.07261 4.65921C2.82676 4.7752 2.61501 4.95262 2.45776 5.17436C2.30052 5.3961 2.2031 5.65463 2.17496 5.92501C2.15079 6.63811 1.72403 7.43398 0.909114 8.28749C0.842112 8.35226 0.796815 8.43619 0.779419 8.52775C0.762023 8.61931 0.773388 8.71399 0.811963 8.79883C0.88722 8.9245 0.996194 9.02658 1.12651 9.09346C1.25683 9.16034 1.40327 9.18939 1.54925 9.17727C1.57521 9.17805 1.60119 9.17648 1.62687 9.17262C3.72762 9.04618 6.44897 8.77933 7.43773 8.20708C7.76668 8.05737 8.04952 7.82231 8.25685 7.52628C8.46418 7.23026 8.58841 6.8841 8.61665 6.52379C8.60928 6.26692 8.54499 6.01489 8.42842 5.78586C8.31186 5.55684 8.14593 5.35652 7.94259 5.19939C8.44985 4.92379 9.03735 4.8337 9.6039 4.94459C10.1705 5.05549 10.6806 5.36046 11.0465 5.80697L11.0377 12.6354L11.0516 12.6303C11.6169 12.3842 12.2128 12.2154 12.8232 12.1283C12.8232 5.53451 12.8149 8.99177 12.82 5.72793C13.1899 5.2871 13.7045 4.99197 14.2717 4.89516C14.839 4.79836 15.4223 4.9062 15.9174 5.19939C15.7139 5.35673 15.5475 5.55696 15.4302 5.78586C15.3128 6.01476 15.2472 6.26672 15.2382 6.52379C15.2666 6.88407 15.3908 7.23017 15.5982 7.52617C15.8055 7.82218 16.0883 8.05729 16.4172 8.20708C17.4069 8.77933 20.1282 9.04618 22.2281 9.17262C22.2537 9.1765 22.2797 9.17806 22.3057 9.17727C22.4516 9.18934 22.5981 9.16028 22.7284 9.0934C22.8587 9.02652 22.9676 8.92446 23.0429 8.79883C23.0814 8.71393 23.0927 8.61924 23.0752 8.52769C23.0577 8.43615 23.0124 8.35224 22.9453 8.28749Z" fill="#DC00F9"/>
</g>
</g>
</g>
</g>
<defs>
<clipPath id="clip0_478_5039">
<rect width="22.3077" height="22.3077" fill="white" transform="translate(0.776367 0.237305)"/>
</clipPath>
<clipPath id="clip1_478_5039">
<rect width="22.3077" height="22.3077" fill="white" transform="translate(0.776367 0.237305)"/>
</clipPath>
<clipPath id="clip2_478_5039">
<rect width="22.3077" height="22.3077" fill="white" transform="translate(0.776367 0.237305)"/>
</clipPath>
</defs>
</svg>
