<svg width="24" height="23" viewBox="0 0 24 23" fill="none" xmlns="http://www.w3.org/2000/svg">
<g clip-path="url(#clip0_478_5097)">
<g clip-path="url(#clip1_478_5097)">
<g clip-path="url(#clip2_478_5097)">
<path d="M14.7903 8.25867L15.8127 7.66101C15.8081 7.66101 15.8127 7.64661 15.8127 7.62198C15.8062 7.52966 15.7791 7.43998 15.7333 7.35954C15.6876 7.2791 15.6243 7.20996 15.5483 7.15724C15.5316 7.14822 15.5132 7.14329 15.4944 7.14282L14.7894 7.55413L13.5996 8.24426C13.7204 8.40783 13.827 8.58151 13.918 8.76338L14.7903 8.25867Z" fill="#DC00F9"/>
<path d="M10.5245 9.46781L11.2593 9.04164C10.7987 8.7284 10.4808 8.89013 10.5245 9.46781Z" fill="#DC00F9"/>
<path d="M12.0861 10.5607C12.0861 10.5067 12.0814 10.4528 12.0763 10.3989L11.2979 10.8544C11.3392 10.8877 11.3836 10.9171 11.4303 10.9422C11.8179 11.1648 12.0861 11.0352 12.0861 10.5607Z" fill="#DC00F9"/>
<path d="M16.5995 0.679688L5.51074 7.082L6.59822 7.71404L17.687 1.31173L16.5995 0.679688Z" fill="#DC00F9"/>
<path d="M5.2666 7.50708L5.30889 22.3538L6.39408 22.9845L6.35179 8.13774L5.2666 7.50708Z" fill="#DC00F9"/>
<path d="M8.44336 11.9409C8.54607 11.8819 11.8853 9.94244 11.9392 9.90852C11.8588 9.72473 11.7553 9.55201 11.631 9.39453C10.4655 10.0703 9.60382 10.5648 8.44336 11.2405V11.9409Z" fill="#DC00F9"/>
<path d="M12.5729 10.6236L13.4559 10.1092C13.521 10.0528 13.5714 9.98146 13.603 9.90133C13.6345 9.82122 13.6462 9.73468 13.6371 9.64905C13.6121 9.33845 13.5173 9.03751 13.3596 8.76873C13.202 8.49994 12.9857 8.27025 12.7267 8.09683C12.6586 8.04495 12.5785 8.01103 12.4938 7.9982C12.409 7.98536 12.3225 7.99404 12.242 8.02339L11.3701 8.5346C11.3896 8.54436 11.4092 8.55877 11.4338 8.569C11.7677 8.78692 12.0454 9.08048 12.2445 9.42585C12.4436 9.77121 12.5585 10.1586 12.5798 10.5567C12.5798 10.5762 12.5747 10.5911 12.5747 10.6032L12.5729 10.6236Z" fill="#DC00F9"/>
<path d="M10.3283 15.9555C10.7396 16.1958 10.9892 16.029 10.9892 15.5786C10.9884 15.5321 10.9852 15.4855 10.9794 15.4392L10.2158 15.8798C10.2549 15.9049 10.2892 15.9314 10.3283 15.9555Z" fill="#DC00F9"/>
<path d="M16.3524 4.47852L15.2705 5.10035L15.2752 6.70651C15.3563 6.66821 15.4457 6.65041 15.5354 6.65471C15.6251 6.659 15.7124 6.68525 15.7896 6.73113C15.9401 6.82791 16.0652 6.95925 16.1546 7.11423C16.2441 7.26921 16.2951 7.44331 16.3035 7.62203C16.3094 7.71279 16.2906 7.80344 16.2493 7.88442C16.2079 7.96539 16.1454 8.0337 16.0684 8.08213L15.2783 8.5376L15.2881 11.0988C15.3667 11.0597 15.4542 11.042 15.5418 11.0471C15.6295 11.0522 15.7142 11.0801 15.7877 11.1281C15.9382 11.2248 16.0634 11.3562 16.1528 11.5112C16.2422 11.6661 16.2932 11.8402 16.3017 12.019C16.3072 12.1079 16.2891 12.1968 16.2496 12.2767C16.21 12.3566 16.1504 12.4248 16.0764 12.4744L15.2927 12.9299L15.2978 14.7661L16.3798 15.3977C16.3556 6.40302 16.3505 4.67929 16.3505 4.49804L16.3524 4.47852Z" fill="#DC00F9"/>
<path d="M15.5455 11.5539C15.5293 11.5433 15.5108 11.5366 15.4916 11.5344C15.3205 11.6376 12.5586 13.2433 12.5098 13.273C12.6294 13.438 12.7342 13.6133 12.823 13.7968C12.9945 13.6987 15.7611 12.0926 15.8099 12.0633C15.8053 12.0633 15.8099 12.0438 15.8099 12.0168C15.803 11.9248 15.7758 11.8356 15.73 11.7555C15.6842 11.6753 15.6212 11.6066 15.5455 11.5539Z" fill="#DC00F9"/>
<path d="M17.9295 1.73633C15.2414 3.28857 9.33175 6.70119 6.83887 8.13586L6.883 22.9872L17.969 16.5877L17.9295 1.73633ZM16.7448 16.0342C8.89536 20.5682 8.3423 20.8866 8.3423 20.8866C8.30569 20.9098 8.26302 20.9218 8.21962 20.921C8.15474 20.9208 8.09256 20.895 8.04674 20.849C8.0009 20.8031 7.97517 20.7409 7.97517 20.6761C7.94542 10.981 7.94076 8.905 7.94076 8.905C7.94113 8.86163 7.95253 8.81908 7.97392 8.78135C7.99531 8.74362 8.02596 8.71195 8.06298 8.68936L16.4706 3.84164C16.5075 3.82043 16.5491 3.80915 16.5916 3.8089C16.634 3.80865 16.6758 3.81943 16.7128 3.84019C16.7498 3.86094 16.7807 3.89098 16.8027 3.92732C16.8246 3.96367 16.8367 4.00509 16.8378 4.04751C16.8378 4.04751 16.8424 5.4529 16.8671 15.8186C16.8676 15.8621 16.8567 15.905 16.8351 15.9429C16.8136 15.9808 16.7825 16.0123 16.7448 16.0342Z" fill="#DC00F9"/>
<path d="M8.46191 18.9966C8.46191 18.9966 8.46657 20.1524 8.46657 20.2514L16.1348 15.8252C16.0758 15.7862 15.1124 15.2275 15.0524 15.1936L8.46191 18.9966Z" fill="#DC00F9"/>
<path d="M12.357 15.1285C12.4212 15.0713 12.4711 14.9998 12.5026 14.9198C12.534 14.8398 12.5463 14.7535 12.5383 14.6679C12.5154 14.3562 12.4215 14.0538 12.2637 13.7839C12.1059 13.514 11.8884 13.2839 11.6278 13.111C11.5587 13.0611 11.4783 13.0287 11.3938 13.0167C11.3092 13.0047 11.223 13.0135 11.1426 13.0422L10.2666 13.5535C10.4584 13.661 10.6332 13.7963 10.7853 13.955C11.2195 14.4075 11.4663 15.0075 11.4759 15.6346V15.6443L12.357 15.1285Z" fill="#DC00F9"/>
<path d="M9.42402 14.3839C9.42325 14.4216 9.42481 14.4594 9.42868 14.4968L10.1723 14.0655C9.74237 13.7672 9.42867 13.8796 9.42402 14.3839Z" fill="#DC00F9"/>
<path d="M10.8455 14.942C10.7673 14.754 10.6634 14.5778 10.5369 14.4182L8.45117 15.6326L8.45583 16.333L10.8455 14.942Z" fill="#DC00F9"/>
</g>
</g>
</g>
<defs>
<clipPath id="clip0_478_5097">
<rect width="22.3077" height="22.3077" fill="white" transform="translate(0.776367 0.679688)"/>
</clipPath>
<clipPath id="clip1_478_5097">
<rect width="22.3077" height="22.3077" fill="white" transform="translate(0.776367 0.679688)"/>
</clipPath>
<clipPath id="clip2_478_5097">
<rect width="22.3077" height="22.3077" fill="white" transform="translate(0.776367 0.679688)"/>
</clipPath>
</defs>
</svg>
