<svg width="23" height="23" viewBox="0 0 23 23" fill="none" xmlns="http://www.w3.org/2000/svg">
<g clip-path="url(#clip0_478_5023)">
<g clip-path="url(#clip1_478_5023)">
<g clip-path="url(#clip2_478_5023)">
<mask id="mask0_478_5023" style="mask-type:luminance" maskUnits="userSpaceOnUse" x="0" y="0" width="23" height="23">
<path d="M22.9809 0.237305H0.672852V22.545H22.9809V0.237305Z" fill="white"/>
</mask>
<g mask="url(#mask0_478_5023)">
<path d="M18.0771 13.8428L7.57519 19.9508L7.56355 19.9576L7.57277 19.9522L7.49569 19.9968L7.53059 19.9765L7.45303 20.0215L7.42589 20.0375L7.42976 20.0351L7.40746 20.0482L7.4157 20.0434L7.38467 20.0618H7.3871L7.37741 20.0671H7.37498H7.37207L7.41425 20.0913L8.43759 20.6813L19.1456 14.4588L18.0771 13.8428Z" fill="#DC00F9"/>
<path d="M15.5308 -0.0745549L14.4614 -0.692139L3.75195 5.53128L4.8228 6.14838L15.5308 -0.0745549Z" fill="#DC00F9"/>
<path d="M19.3617 14.9238L8.6891 21.1288C8.67897 21.3469 8.64533 21.5632 8.58877 21.7741C8.58343 21.7953 8.58052 21.8187 8.57422 21.839L18.763 15.9186C18.9303 15.8075 19.0708 15.6606 19.1744 15.4886C19.2779 15.3165 19.3419 15.1237 19.3617 14.9238Z" fill="#DC00F9"/>
<path d="M5.07689 6.58818L5.04199 18.8717C5.0611 19.186 5.15287 19.4916 5.31008 19.7644C5.4673 20.0373 5.68567 20.2701 5.94802 20.4443C6.36298 20.6784 6.60245 20.5218 6.61215 20.0753V20.0719C6.61193 20.0275 6.62342 19.9837 6.64546 19.945C6.6675 19.9065 6.6993 19.8743 6.7377 19.8518L16.5818 14.1267C16.3326 13.9008 16.1308 13.6278 15.9878 13.3233C15.8448 13.0189 15.7637 12.6891 15.749 12.353L15.7834 0.367188L5.07689 6.58818ZM8.22786 10.8541L9.17897 7.41955C9.18809 7.38619 9.20396 7.35507 9.2256 7.32809C9.24723 7.30112 9.27419 7.27887 9.30477 7.26274C9.33536 7.2466 9.36893 7.23692 9.40341 7.23429C9.43789 7.23166 9.47254 7.23614 9.50522 7.24745L11.0478 7.77584L12.9102 4.76158C12.9277 4.73329 12.9506 4.70871 12.9776 4.68926C13.0045 4.6698 13.0351 4.65584 13.0674 4.64818C13.0998 4.64053 13.1333 4.63934 13.1662 4.64465C13.199 4.64997 13.2305 4.66169 13.2587 4.67916C13.2871 4.69664 13.3116 4.71952 13.331 4.7465C13.3506 4.77347 13.3645 4.80401 13.3721 4.83638C13.3798 4.86874 13.381 4.9023 13.3757 4.93513C13.3704 4.96796 13.3587 4.99943 13.3412 5.02772L11.3725 8.21409C11.3423 8.26295 11.2965 8.30011 11.2424 8.31949C11.1883 8.33886 11.1293 8.3393 11.0749 8.32073L9.59539 7.81415L8.71651 10.9893C8.69784 11.0533 8.65475 11.1074 8.59655 11.1398C8.53834 11.1722 8.46972 11.1804 8.4055 11.1627C8.34128 11.1449 8.28664 11.1025 8.2534 11.0448C8.22015 10.9871 8.21099 10.9186 8.22786 10.8541ZM8.91865 16.6107L6.85646 17.8008C6.82045 17.8197 6.78028 17.8291 6.73964 17.8284C6.7093 17.8289 6.67917 17.8233 6.651 17.812C6.62283 17.8008 6.59715 17.7841 6.57548 17.7629C6.5538 17.7416 6.53654 17.7163 6.5247 17.6884C6.51285 17.6604 6.50665 17.6304 6.50646 17.6001L6.50162 15.4118C6.50104 15.3704 6.51157 15.3295 6.53211 15.2934C6.55265 15.2573 6.58246 15.2275 6.61845 15.2068L8.68064 14.0168C8.71608 13.9962 8.7563 13.9854 8.79722 13.9854C8.83816 13.9854 8.87836 13.9962 8.91381 14.0168C8.94852 14.0378 8.97741 14.0671 8.99782 14.1022C9.01824 14.1372 9.02951 14.1768 9.03064 14.2174L9.03499 16.4056C9.03596 16.447 9.02587 16.4878 9.00575 16.524C8.98564 16.5601 8.95624 16.5902 8.9206 16.6111L8.91865 16.6107ZM14.7635 13.4496L10.2014 16.1008C10.1726 16.12 10.1403 16.1332 10.1063 16.1394C10.0723 16.1457 10.0374 16.1449 10.0037 16.1372C9.97002 16.1295 9.93823 16.1149 9.91039 16.0944C9.88254 16.0739 9.85919 16.048 9.84177 16.0181C9.82434 15.9882 9.81324 15.9551 9.80911 15.9208C9.80498 15.8865 9.80794 15.8517 9.81778 15.8186C9.82762 15.7854 9.84416 15.7546 9.86636 15.7281C9.88855 15.7016 9.91594 15.68 9.94684 15.6645L14.5085 13.0133C14.5371 12.9931 14.5698 12.9792 14.6042 12.9723C14.6385 12.9654 14.6739 12.9657 14.7082 12.9731C14.7424 12.9807 14.7747 12.9952 14.8031 13.0158C14.8314 13.0364 14.8552 13.0626 14.8729 13.0929C14.8906 13.1231 14.9018 13.1568 14.9059 13.1916C14.9099 13.2264 14.9067 13.2617 14.8964 13.2952C14.8861 13.3287 14.869 13.3598 14.8461 13.3863C14.8232 13.4129 14.7951 13.4344 14.7635 13.4496ZM14.7635 11.3219L10.2018 13.9731C10.1445 14.0001 10.0791 14.0046 10.0186 13.9858C9.95808 13.9669 9.90681 13.9261 9.87488 13.8714C9.84294 13.8167 9.83267 13.7519 9.84608 13.69C9.85949 13.6281 9.89562 13.5734 9.94733 13.5368L14.5095 10.8861C14.5382 10.8665 14.5706 10.8532 14.6047 10.8467C14.6388 10.8402 14.6739 10.8409 14.7078 10.8485C14.7416 10.8562 14.7735 10.8708 14.8016 10.8914C14.8296 10.9119 14.853 10.938 14.8705 10.968C14.8879 10.998 14.8991 11.0312 14.9031 11.0658C14.9072 11.1003 14.9041 11.1353 14.8941 11.1684C14.884 11.2017 14.8672 11.2326 14.8448 11.259C14.8223 11.2855 14.7946 11.3066 14.7635 11.3219ZM14.8604 9.11768L6.98978 13.6085C6.95144 13.6301 6.90821 13.6414 6.86422 13.6415C6.79711 13.6415 6.73275 13.6148 6.68529 13.5673C6.63784 13.5199 6.61117 13.4555 6.61117 13.3884V7.34392C6.61117 7.27675 6.63786 7.21233 6.68536 7.16483C6.73286 7.11733 6.79729 7.09064 6.86447 7.09064C6.93164 7.09064 6.99607 7.11733 7.04357 7.16483C7.09107 7.21233 7.11775 7.27675 7.11775 7.34392V12.9503L14.6117 8.678C14.6407 8.66012 14.6729 8.64824 14.7066 8.64309C14.7402 8.63794 14.7746 8.63963 14.8075 8.64803C14.8405 8.65644 14.8715 8.67139 14.8986 8.69201C14.9257 8.71264 14.9484 8.7385 14.9652 8.76807C14.982 8.79763 14.9928 8.83031 14.9968 8.86411C15.0008 8.89791 14.9979 8.93217 14.9883 8.96484C14.9788 8.99751 14.9628 9.02793 14.9412 9.05427C14.9196 9.08061 14.893 9.10234 14.8628 9.11816L14.8604 9.11768Z" fill="#DC00F9"/>
<path d="M5.69425 20.8847C5.35338 20.6665 5.06982 20.3697 4.86739 20.0193C4.66495 19.6688 4.54953 19.2749 4.53082 18.8705L4.56572 6.58902L3.49584 5.97192V6.23709C3.49584 6.59775 3.48906 8.6197 3.46191 17.9646C3.50819 18.8241 3.75675 19.6605 4.18737 20.4059C4.61799 21.1512 5.2185 21.7843 5.94003 22.2538C7.10347 22.9256 8.09966 22.5547 8.16994 21.1174L7.055 20.4746C6.87805 21.0195 6.32736 21.2435 5.69425 20.8847Z" fill="#DC00F9"/>
<path d="M7.49562 19.9978L7.42969 20.0361L7.45296 20.0225L7.49562 19.9978Z" fill="#DC00F9"/>
</g>
</g>
</g>
</g>
<defs>
<clipPath id="clip0_478_5023">
<rect width="22.3077" height="22.3077" fill="white" transform="translate(0.672852 0.237305)"/>
</clipPath>
<clipPath id="clip1_478_5023">
<rect width="22.3077" height="22.3077" fill="white" transform="translate(0.672852 0.237305)"/>
</clipPath>
<clipPath id="clip2_478_5023">
<rect width="22.3077" height="22.3077" fill="white" transform="translate(0.672852 0.237305)"/>
</clipPath>
</defs>
</svg>
