<svg width="23" height="23" viewBox="0 0 23 23" fill="none" xmlns="http://www.w3.org/2000/svg">
<g clip-path="url(#clip0_478_5079)">
<g clip-path="url(#clip1_478_5079)">
<mask id="mask0_478_5079" style="mask-type:luminance" maskUnits="userSpaceOnUse" x="0" y="0" width="23" height="23">
<path d="M22.9815 0.679688H0.672852V22.9874H22.9815V0.679688Z" fill="white"/>
</mask>
<g mask="url(#mask0_478_5079)">
<path d="M12.3135 16.5077C12.3135 16.3739 12.3196 18.6126 12.3196 18.6625L13.8122 17.8006L13.8061 15.6458L12.3135 16.5077Z" fill="#DC00F9"/>
<path d="M10.3262 18.7286L10.3291 19.8119L11.8216 18.95C11.8216 19.0182 11.8187 17.9199 11.8187 17.8667L10.3262 18.7286Z" fill="#DC00F9"/>
<path d="M6.66743 13.7704L6.65472 9.2159L4.39062 7.8999L4.40334 12.4545L6.66743 13.7704Z" fill="#DC00F9"/>
<path d="M8.79939 11.4469C8.8068 11.4131 8.82118 11.3812 8.84162 11.3534C8.86206 11.3255 8.8881 11.3021 8.91809 11.2849L11.1893 9.97361C11.22 9.95587 11.2542 9.94494 11.2897 9.94158C11.325 9.93821 11.3607 9.94251 11.3942 9.95412C11.4279 9.96572 11.4585 9.98441 11.4843 10.0089C11.51 10.0334 11.5302 10.0631 11.5434 10.096L11.9231 11.0419L18.924 6.99974L18.9108 2.43481L7.16504 9.2172L7.17775 13.7826L8.45322 13.0464L8.79939 11.4469ZM17.4064 4.64239C17.4837 4.58243 17.577 4.54666 17.6746 4.53959C17.7721 4.53252 17.8696 4.55448 17.9547 4.60266C18.0398 4.65084 18.1088 4.72305 18.153 4.81033C18.1971 4.89761 18.2145 4.99603 18.2029 5.09315C18.1936 5.30418 18.1337 5.50989 18.0285 5.69305C17.9233 5.87621 17.7757 6.03148 17.5981 6.14582C17.52 6.20501 17.4262 6.24 17.3284 6.24644C17.2307 6.25289 17.1331 6.23052 17.0479 6.18211C16.9627 6.13368 16.8935 6.06135 16.849 5.97403C16.8045 5.88672 16.7866 5.78827 16.7974 5.69086C16.8076 5.48014 16.8683 5.27489 16.9743 5.09246C17.0803 4.91003 17.2284 4.7557 17.4064 4.64239ZM14.8946 6.03986C14.9775 5.9761 15.0774 5.93832 15.1818 5.93131C15.2862 5.9243 15.3903 5.94838 15.481 6.00048C15.5717 6.05257 15.6449 6.13039 15.6914 6.22407C15.738 6.31776 15.7557 6.4231 15.7424 6.52684C15.7315 6.74981 15.6674 6.96696 15.5556 7.16015C15.4438 7.35334 15.2874 7.517 15.0994 7.63747C15.017 7.701 14.9176 7.73887 14.8137 7.74631C14.7099 7.75375 14.6062 7.73046 14.5154 7.67933C14.4247 7.6282 14.3511 7.55148 14.3037 7.45878C14.2563 7.36608 14.2372 7.26149 14.2489 7.15802C14.2596 6.93388 14.3239 6.71553 14.4363 6.52127C14.5485 6.327 14.7057 6.16242 14.8946 6.04124V6.03986ZM12.3837 7.48913C12.4663 7.42549 12.5658 7.38767 12.6699 7.38047C12.774 7.37326 12.8778 7.39696 12.9684 7.4486C13.059 7.50024 13.1323 7.57752 13.1791 7.6707C13.226 7.76389 13.2442 7.86887 13.2314 7.97238C13.2206 8.19566 13.1566 8.41309 13.0449 8.60672C12.9332 8.80035 12.7769 8.96456 12.5891 9.08577C12.5065 9.1496 12.407 9.18761 12.3029 9.19495C12.1988 9.20228 12.0949 9.17862 12.0042 9.12699C11.9135 9.07536 11.8402 8.99807 11.7934 8.90483C11.7466 8.81158 11.7285 8.70659 11.7413 8.60304C11.7508 8.37943 11.8142 8.1614 11.9259 7.96749C12.0377 7.77358 12.195 7.60951 12.3837 7.48913Z" fill="#DC00F9"/>
<path d="M16.38 0.679688L4.63379 7.46207L6.91389 8.78698L18.6596 2.0046L16.38 0.679688Z" fill="#DC00F9"/>
<path d="M11.9236 11.6143C11.8927 11.632 11.8585 11.6428 11.8232 11.6462C11.7879 11.6495 11.7522 11.6452 11.7187 11.6336C11.6851 11.622 11.6544 11.6033 11.6287 11.5789C11.6029 11.5544 11.5827 11.5248 11.5694 11.4919L11.1898 10.5461L9.2615 11.6591L8.91484 13.2576C8.90755 13.2914 8.89326 13.3232 8.8729 13.3511C8.85254 13.3791 8.82655 13.4023 8.79662 13.4196L7.17969 14.3532L7.20465 23.2875L18.9509 16.5052L18.9254 7.5708L11.9236 11.6143ZM9.83988 16.7797L10.7248 13.5836C10.734 13.551 10.7497 13.5206 10.7709 13.4942C10.7921 13.4679 10.8185 13.4461 10.8485 13.4303C10.8784 13.4145 10.9112 13.405 10.9449 13.4023C10.9788 13.3997 11.0126 13.404 11.0447 13.4149L12.4709 13.9033L14.1985 11.1066C14.2156 11.0787 14.2381 11.0546 14.2645 11.0354C14.291 11.0163 14.321 11.0025 14.3528 10.9949C14.3846 10.9874 14.4176 10.9861 14.4499 10.9913C14.4821 10.9965 14.5131 11.008 14.5409 11.0251C14.5687 11.0422 14.5929 11.0647 14.6121 11.0912C14.6313 11.1177 14.645 11.1476 14.6526 11.1794C14.6601 11.2112 14.6614 11.2442 14.6562 11.2764C14.651 11.3088 14.6396 11.3397 14.6224 11.3675L12.7903 14.3348C12.7608 14.3828 12.7159 14.4194 12.6628 14.4384C12.6098 14.4574 12.5519 14.4578 12.4987 14.4394L11.1328 13.9721L10.3184 16.9145C10.3095 16.9459 10.2946 16.9752 10.2744 17.0009C10.2542 17.0265 10.2291 17.0479 10.2007 17.0639C10.1723 17.0799 10.1409 17.0901 10.1085 17.094C10.0761 17.0978 10.0433 17.0952 10.0118 17.0864C9.98042 17.0775 9.95101 17.0626 9.92536 17.0424C9.89972 17.0222 9.8783 16.9971 9.86234 16.9687C9.84638 16.9403 9.83617 16.9088 9.83232 16.8765C9.82847 16.8441 9.83104 16.8111 9.83988 16.7797ZM16.1748 17.0087L10.2845 20.4093L10.2605 20.4229H10.2643L10.2468 20.4328L10.2209 20.4479L10.2133 20.4521L10.2073 20.4554C10.1696 20.4772 10.1268 20.4888 10.0833 20.4888C10.0398 20.4889 9.99696 20.4775 9.95927 20.4558C9.92154 20.4341 9.89021 20.4029 9.86842 20.3651C9.84664 20.3274 9.83517 20.2846 9.83518 20.2411L9.83046 18.588C9.83041 18.5442 9.84186 18.5012 9.86369 18.4634C9.88553 18.4255 9.91695 18.3941 9.95481 18.3722L11.8181 17.2964L11.8157 16.3667C11.8154 16.323 11.8268 16.2799 11.8485 16.242C11.8703 16.2042 11.9017 16.1728 11.9396 16.151L13.8033 15.0748L13.8001 13.803C13.7998 13.7594 13.811 13.7163 13.8328 13.6784C13.8546 13.6405 13.886 13.6092 13.924 13.5873L15.9158 12.4344C15.9534 12.4126 15.9962 12.4012 16.0397 12.4012C16.0832 12.4012 16.1258 12.4126 16.1636 12.4344C16.2012 12.456 16.2325 12.4873 16.2544 12.5248C16.2761 12.5625 16.2877 12.6051 16.2878 12.6486L16.2996 16.7934C16.2996 16.8372 16.2881 16.8801 16.2662 16.918C16.2442 16.9559 16.2127 16.9869 16.1748 17.0087Z" fill="#DC00F9"/>
<path d="M14.2998 13.9419L14.3097 17.5145L15.8051 16.6512L15.7952 13.0786L14.2998 13.9419Z" fill="#DC00F9"/>
<path d="M4.39062 13.0217L4.41606 21.9613L6.69334 23.2848L6.6679 14.3453L4.39062 13.0217Z" fill="#DC00F9"/>
<path d="M10.2456 20.431L10.2588 20.4233L10.2402 20.4342L10.2456 20.431Z" fill="#DC00F9"/>
</g>
</g>
</g>
<defs>
<clipPath id="clip0_478_5079">
<rect width="22.3077" height="22.3077" fill="white" transform="translate(0.672852 0.679688)"/>
</clipPath>
<clipPath id="clip1_478_5079">
<rect width="22.3077" height="22.3077" fill="white" transform="translate(0.672852 0.679688)"/>
</clipPath>
</defs>
</svg>
