<svg width="263" height="226" viewBox="0 0 263 226" fill="none" xmlns="http://www.w3.org/2000/svg">
<g clip-path="url(#clip0_23_482)">
<g clip-path="url(#clip1_23_482)">
<path fill-rule="evenodd" clip-rule="evenodd" d="M0.0200195 25.784V196.312C0.0200195 196.312 3.63878 226.237 36.7034 227.047H231.026C231.026 227.047 262.187 226.055 262.752 196.484C263.317 166.914 262.752 116.997 262.752 116.997C262.752 116.997 254.018 91.9131 231.026 88.2448C219.052 86.7104 207.733 81.908 198.308 74.3646C188.021 65.8027 180.443 54.4361 176.497 41.647C175.713 39.1387 174.355 26.6386 169.557 18.8439C163.628 9.20605 153.545 2.83703 140.805 -0.984982H33.729C33.729 -0.984982 0.367024 -3.38725 0.0200195 25.784Z" fill="white"/>
</g>
</g>
<defs>
<clipPath id="clip0_23_482">
<rect width="262.98" height="226" fill="white" transform="translate(0.0200195)"/>
</clipPath>
<clipPath id="clip1_23_482">
<rect width="262.98" height="228.093" fill="white" transform="translate(0.0200195 -1.04657)"/>
</clipPath>
</defs>
</svg>
