<svg width="15" height="16" viewBox="0 0 15 16" fill="none" xmlns="http://www.w3.org/2000/svg">
<path d="M6.5429 6.95434C6.24785 7.25861 6.01964 7.60208 5.85828 7.98473C5.69692 8.36738 5.61624 8.77077 5.61624 9.19491C5.61624 9.61906 5.69692 10.0248 5.85828 10.412C6.01964 10.7993 6.24785 11.145 6.5429 11.4493C6.84718 11.7536 7.19295 11.9841 7.58021 12.1409C7.96747 12.2976 8.37317 12.376 8.79731 12.376C9.22145 12.376 9.62716 12.2976 10.0144 12.1409C10.4017 11.9841 10.7428 11.7536 11.0379 11.4493C11.3514 11.1358 11.5865 10.7854 11.7433 10.3982C11.8908 10.0109 11.9645 9.61214 11.9645 9.20183C11.9645 8.79152 11.8908 8.39273 11.7433 8.00547C11.5865 7.61821 11.3514 7.26783 11.0379 6.95434C10.7336 6.64084 10.3832 6.41033 9.98675 6.2628C9.59949 6.10605 9.20301 6.02768 8.79731 6.02768C8.39161 6.02768 7.99052 6.10605 7.59404 6.2628C7.20678 6.41033 6.8564 6.64084 6.5429 6.95434ZM10.6783 11.0897C10.4293 11.3387 10.1412 11.5323 9.81387 11.6706C9.48654 11.8089 9.14769 11.8781 8.79731 11.8781C8.43771 11.8781 8.09425 11.8089 7.76692 11.6706C7.4396 11.5323 7.15146 11.3387 6.9025 11.0897C6.65355 10.8408 6.46222 10.5526 6.32853 10.2253C6.19483 9.89798 6.12798 9.55451 6.12798 9.19491C6.12798 8.84454 6.19483 8.50568 6.32853 8.17836C6.46222 7.85103 6.65355 7.56289 6.9025 7.31394C7.16068 7.05576 7.45573 6.85983 7.78767 6.72613C8.11961 6.59243 8.45615 6.52558 8.79731 6.52558C9.13847 6.52558 9.47271 6.59243 9.80004 6.72613C10.1274 6.85983 10.4201 7.05576 10.6783 7.31394C10.9365 7.57211 11.1347 7.86716 11.273 8.1991C11.4021 8.52182 11.4666 8.85606 11.4666 9.20183C11.4666 9.5476 11.4021 9.88184 11.273 10.2046C11.1347 10.5365 10.9365 10.8316 10.6783 11.0897ZM14.5647 7.881C14.5555 7.82567 14.5278 7.77957 14.4817 7.74269C14.4356 7.70581 14.3849 7.68737 14.3296 7.68737H13.6242C13.5874 7.53984 13.5389 7.39692 13.479 7.25861C13.4191 7.12031 13.3522 6.98661 13.2785 6.85752L13.7764 6.35962C13.8133 6.32273 13.8363 6.27433 13.8455 6.21439C13.8547 6.15446 13.8409 6.09683 13.804 6.04151C13.6934 5.8571 13.5689 5.6796 13.4306 5.50903C13.2923 5.33845 13.1448 5.17478 12.988 5.01803C12.8313 4.85207 12.6653 4.69993 12.4901 4.56162C12.3149 4.42331 12.1351 4.29884 11.9507 4.18819C11.8954 4.15131 11.8401 4.13748 11.7847 4.1467C11.7294 4.15592 11.6787 4.17897 11.6326 4.21585L11.1485 4.71376C11.0102 4.64 10.8719 4.57545 10.7336 4.52013C10.5953 4.46481 10.4524 4.41409 10.3049 4.36799V3.67645C10.3049 3.61191 10.2864 3.55659 10.2495 3.51049C10.2127 3.46438 10.1666 3.43672 10.1112 3.4275C9.93604 3.3814 9.76085 3.34682 9.58566 3.32377C9.41047 3.30072 9.23528 3.28919 9.0601 3.28919C9.06932 3.25231 9.06932 3.22004 9.0601 3.19238C9.05088 3.16472 9.03704 3.13706 9.0186 3.1094C8.93562 2.96187 8.8388 2.82125 8.72816 2.68756C8.61751 2.55386 8.50226 2.42708 8.38239 2.30721C8.26252 2.18735 8.13574 2.07209 8.00205 1.96144C7.86835 1.8508 7.72774 1.75398 7.58021 1.671C7.53411 1.63412 7.48109 1.62029 7.42115 1.62951C7.36122 1.63873 7.31281 1.66178 7.27593 1.69866L6.93016 2.04443C6.83796 1.99833 6.74345 1.95453 6.64663 1.91304C6.54982 1.87154 6.45531 1.83697 6.3631 1.80931V1.32523C6.3631 1.26991 6.34466 1.21689 6.30778 1.16618C6.2709 1.11547 6.22019 1.0855 6.15564 1.07628C5.82371 1.00251 5.48485 0.965632 5.13908 0.965632C4.79332 0.965632 4.45446 1.00251 4.12253 1.07628C4.0672 1.0855 4.0211 1.11547 3.98422 1.16618C3.94734 1.21689 3.9289 1.26991 3.9289 1.32523V1.80931C3.82747 1.83697 3.73066 1.87154 3.63845 1.91304C3.54625 1.95453 3.45404 1.99833 3.36184 2.04443L3.01607 1.69866C2.96997 1.66178 2.91695 1.63873 2.85702 1.62951C2.79708 1.62029 2.74406 1.63412 2.69796 1.671C2.55043 1.75398 2.40982 1.8508 2.27612 1.96144C2.14243 2.07209 2.01565 2.18735 1.89578 2.30721C1.77591 2.42708 1.66296 2.55386 1.55693 2.68756C1.45089 2.82125 1.35177 2.96187 1.25957 3.1094C1.22268 3.1555 1.20885 3.20852 1.21807 3.26845C1.22729 3.32838 1.25035 3.3814 1.28723 3.4275L1.633 3.75944C1.58689 3.85164 1.5454 3.94615 1.50852 4.04297C1.47164 4.13978 1.43476 4.2389 1.39787 4.34033H0.913798C0.858475 4.34033 0.807763 4.35877 0.76166 4.39565C0.715558 4.43253 0.683286 4.47864 0.664845 4.53396C0.591081 4.8659 0.554199 5.20475 0.554199 5.55052C0.554199 5.89629 0.591081 6.23514 0.664845 6.56708C0.683286 6.6224 0.715558 6.6685 0.76166 6.70538C0.807763 6.74227 0.858475 6.76071 0.913798 6.76071H1.39787C1.43476 6.86213 1.47164 6.96125 1.50852 7.05807C1.5454 7.15488 1.58689 7.24939 1.633 7.3416L1.28723 7.67353C1.25035 7.71964 1.22729 7.77265 1.21807 7.83259C1.20885 7.89252 1.22268 7.94554 1.25957 7.99164C1.35177 8.13917 1.45089 8.27978 1.55693 8.41348C1.66296 8.54718 1.77591 8.67396 1.89578 8.79382C2.01565 8.91369 2.14243 9.02664 2.27612 9.13268C2.40982 9.23871 2.55043 9.33783 2.69796 9.43004C2.7164 9.44848 2.73715 9.46 2.7602 9.46461C2.78325 9.46922 2.80861 9.47153 2.83627 9.47153C2.84549 9.47153 2.8524 9.47153 2.85702 9.47153C2.86163 9.47153 2.86854 9.47153 2.87776 9.47153C2.88698 9.64672 2.90312 9.82191 2.92617 9.9971C2.94922 10.1723 2.97919 10.3475 3.01607 10.5227C3.02529 10.578 3.05295 10.6241 3.09905 10.661C3.14516 10.6979 3.20048 10.7163 3.26502 10.7163H3.95656C4.00266 10.8638 4.05337 11.0067 4.1087 11.145C4.16402 11.2834 4.22856 11.4171 4.30233 11.5461L3.81825 12.044C3.77215 12.0809 3.74679 12.1293 3.74218 12.1893C3.73757 12.2492 3.7491 12.3068 3.77676 12.3622C3.89662 12.5466 4.02571 12.7241 4.16402 12.8946C4.30233 13.0652 4.44985 13.2289 4.6066 13.3856C4.76335 13.5424 4.92701 13.6899 5.09759 13.8282C5.26817 13.9665 5.45028 14.0956 5.64391 14.2155C5.69001 14.2523 5.74303 14.2662 5.80296 14.257C5.86289 14.2477 5.9113 14.2247 5.94818 14.1878L6.44609 13.6899C6.57518 13.7637 6.71118 13.8282 6.85409 13.8835C6.99701 13.9389 7.13762 13.9896 7.27593 14.0357V14.7272C7.27593 14.7917 7.29437 14.8471 7.33125 14.8932C7.36814 14.9393 7.41885 14.9669 7.48339 14.9762C7.69546 15.0315 7.91215 15.0707 8.13344 15.0937C8.35473 15.1168 8.57602 15.1283 8.79731 15.1283C9.0186 15.1283 9.23759 15.1145 9.45427 15.0868C9.67095 15.0591 9.88994 15.0223 10.1112 14.9762C10.1666 14.9669 10.2127 14.9393 10.2495 14.8932C10.2864 14.8471 10.3049 14.7917 10.3049 14.7272V14.0357C10.4524 13.9896 10.5953 13.9389 10.7336 13.8835C10.8719 13.8282 11.0102 13.7637 11.1485 13.6899L11.6326 14.1878C11.6787 14.2247 11.7294 14.2477 11.7847 14.257C11.8401 14.2662 11.8954 14.2523 11.9507 14.2155C12.1351 14.0956 12.3149 13.9665 12.4901 13.8282C12.6653 13.6899 12.8313 13.5424 12.988 13.3856C13.1448 13.2289 13.2923 13.0652 13.4306 12.8946C13.5689 12.7241 13.6934 12.5466 13.804 12.3622C13.8409 12.3068 13.8547 12.2492 13.8455 12.1893C13.8363 12.1293 13.8133 12.0809 13.7764 12.044L13.2785 11.5461C13.3522 11.4171 13.4191 11.2834 13.479 11.145C13.5389 11.0067 13.5874 10.8638 13.6242 10.7163H14.3158C14.3803 10.7163 14.4356 10.6979 14.4817 10.661C14.5278 10.6241 14.5555 10.578 14.5647 10.5227C14.6662 10.0893 14.7169 9.64902 14.7169 9.20183C14.7169 8.75464 14.6662 8.31436 14.5647 7.881ZM3.01607 7.881C2.97919 8.03774 2.94922 8.19219 2.92617 8.34432C2.90312 8.49646 2.88698 8.65091 2.87776 8.80765L2.79478 8.89064C2.70257 8.8261 2.61037 8.75464 2.51816 8.67626C2.42596 8.59789 2.33836 8.51721 2.25538 8.43422C2.17239 8.35124 2.09171 8.26365 2.01334 8.17144C1.93497 8.07924 1.86351 7.98703 1.79896 7.89483L2.1309 7.56289C2.16778 7.51679 2.19084 7.46607 2.20006 7.41075C2.20928 7.35543 2.20006 7.30472 2.17239 7.25861C2.09863 7.12953 2.03409 6.99813 1.97876 6.86444C1.92344 6.73074 1.87734 6.59013 1.84046 6.4426C1.82202 6.38728 1.78974 6.34348 1.74364 6.31121C1.69754 6.27894 1.64683 6.2628 1.5915 6.2628H1.12126C1.08438 6.02307 1.06594 5.78564 1.06594 5.55052C1.06594 5.3154 1.08438 5.07797 1.12126 4.83824H1.5915C1.64683 4.83824 1.69754 4.8221 1.74364 4.78983C1.78974 4.75756 1.82202 4.71376 1.84046 4.65844C1.87734 4.51091 1.92344 4.3703 1.97876 4.2366C2.03409 4.1029 2.09863 3.97151 2.17239 3.84242C2.20006 3.79632 2.20928 3.74561 2.20006 3.69029C2.19084 3.63496 2.16778 3.58425 2.1309 3.53815L1.79896 3.20621C1.86351 3.11401 1.93497 3.0218 2.01334 2.9296C2.09171 2.83739 2.17239 2.7498 2.25538 2.66681C2.33836 2.58383 2.42596 2.50315 2.51816 2.42477C2.61037 2.3464 2.70257 2.27494 2.79478 2.2104L3.12671 2.54234C3.17282 2.57922 3.22353 2.60227 3.27885 2.61149C3.33418 2.62071 3.38489 2.61149 3.43099 2.58383C3.56008 2.51006 3.69377 2.44552 3.83208 2.3902C3.97039 2.33487 4.1087 2.28416 4.247 2.23806C4.30233 2.22884 4.34612 2.20118 4.3784 2.15508C4.41067 2.10897 4.4268 2.05826 4.4268 2.00294V1.53269C4.66653 1.49581 4.90627 1.47737 5.146 1.47737C5.38573 1.47737 5.62086 1.49581 5.85137 1.53269V2.00294C5.85137 2.05826 5.8675 2.10897 5.89978 2.15508C5.93205 2.20118 5.97584 2.22884 6.03117 2.23806C6.17869 2.28416 6.31931 2.33487 6.453 2.3902C6.5867 2.44552 6.71809 2.51006 6.84718 2.58383C6.89328 2.61149 6.9463 2.62071 7.00623 2.61149C7.06617 2.60227 7.11457 2.57922 7.15146 2.54234L7.48339 2.2104C7.5756 2.27494 7.6678 2.3464 7.76001 2.42477C7.85221 2.50315 7.93981 2.58383 8.02279 2.66681C8.10578 2.7498 8.18645 2.83739 8.26483 2.9296C8.3432 3.0218 8.41466 3.11401 8.47921 3.20621L8.41005 3.28919C8.2533 3.29842 8.09656 3.31455 7.93981 3.3376C7.78306 3.36065 7.63092 3.39062 7.48339 3.4275C7.41885 3.43672 7.36814 3.46438 7.33125 3.51049C7.29437 3.55659 7.27593 3.61191 7.27593 3.67645V4.27118C7.22983 4.18819 7.17451 4.10521 7.10996 4.02222C7.04542 3.93924 6.97627 3.86086 6.9025 3.7871C6.66277 3.55659 6.39307 3.37909 6.0934 3.25462C5.79374 3.13014 5.47794 3.0679 5.146 3.0679C4.81406 3.0679 4.49596 3.13014 4.19168 3.25462C3.8874 3.37909 3.6154 3.55659 3.37567 3.7871C2.8962 4.27579 2.65647 4.86359 2.65647 5.55052C2.65647 6.23744 2.8962 6.82525 3.37567 7.31394C3.44943 7.3877 3.52781 7.45455 3.61079 7.51448C3.69377 7.57441 3.78137 7.63204 3.87357 7.68737H3.26502C3.20048 7.68737 3.14516 7.70581 3.09905 7.74269C3.05295 7.77957 3.02529 7.82567 3.01607 7.881ZM3.81825 6.35962L4.30233 6.85752C4.26544 6.91284 4.23317 6.97508 4.20551 7.04424C4.17785 7.11339 4.15019 7.18024 4.12253 7.24478C4.04876 7.2079 3.98191 7.1641 3.92198 7.11339C3.86205 7.06268 3.79981 7.00966 3.73527 6.95434C3.35723 6.56708 3.16821 6.09914 3.16821 5.55052C3.16821 5.0019 3.35723 4.53396 3.73527 4.1467C3.9289 3.96229 4.14558 3.81937 4.38531 3.71795C4.62504 3.61652 4.87861 3.56581 5.146 3.56581C5.40417 3.56581 5.65543 3.61652 5.89978 3.71795C6.14412 3.81937 6.35849 3.96229 6.5429 4.1467C6.59823 4.20202 6.65124 4.26196 6.70196 4.3265C6.75267 4.39104 6.79647 4.45559 6.83335 4.52013C6.76881 4.54779 6.70426 4.57776 6.63972 4.61003C6.57518 4.6423 6.51063 4.67688 6.44609 4.71376L5.94818 4.21585C5.9113 4.17897 5.86289 4.15592 5.80296 4.1467C5.74303 4.13748 5.69001 4.15131 5.64391 4.18819C5.45028 4.29884 5.26817 4.42331 5.09759 4.56162C4.92701 4.69993 4.76335 4.85207 4.6066 5.01803C4.44985 5.17478 4.30233 5.33845 4.16402 5.50903C4.02571 5.6796 3.89662 5.8571 3.77676 6.04151C3.7491 6.09683 3.73757 6.15446 3.74218 6.21439C3.74679 6.27433 3.77215 6.32273 3.81825 6.35962ZM14.1221 10.2046H13.4444C13.3799 10.2046 13.3269 10.223 13.2854 10.2599C13.2439 10.2968 13.2139 10.3429 13.1955 10.3982C13.1402 10.5826 13.0756 10.7647 13.0019 10.9445C12.9281 11.1243 12.8451 11.3018 12.7529 11.477C12.7252 11.5231 12.7137 11.5738 12.7183 11.6291C12.7229 11.6844 12.7483 11.7352 12.7944 11.7813L13.2646 12.2515C13.1724 12.3898 13.0733 12.5235 12.9673 12.6526C12.8612 12.7817 12.7483 12.9062 12.6284 13.026C12.5086 13.1459 12.3818 13.2611 12.2481 13.3718C12.1144 13.4824 11.9784 13.5839 11.8401 13.6761L11.3698 13.192C11.3237 13.1551 11.273 13.1321 11.2177 13.1228C11.1624 13.1136 11.1117 13.1275 11.0656 13.1643C10.8904 13.2565 10.7129 13.3395 10.5331 13.4133C10.3533 13.487 10.1712 13.5516 9.98675 13.6069C9.93143 13.6161 9.88533 13.6438 9.84845 13.6899C9.81157 13.736 9.79312 13.7867 9.79312 13.842V14.5197C9.47041 14.5843 9.13847 14.6166 8.79731 14.6166C8.45615 14.6166 8.11961 14.5843 7.78767 14.5197V13.842C7.78767 13.7867 7.76923 13.736 7.73235 13.6899C7.69546 13.6438 7.64936 13.6161 7.59404 13.6069C7.40963 13.5516 7.22752 13.487 7.04773 13.4133C6.86793 13.3395 6.69504 13.2565 6.52907 13.1643C6.47375 13.1275 6.41843 13.1136 6.3631 13.1228C6.30778 13.1321 6.25707 13.1551 6.21097 13.192L5.74072 13.6761C5.60241 13.5839 5.46872 13.4824 5.33963 13.3718C5.21054 13.2611 5.08607 13.1459 4.9662 13.026C4.84633 12.9062 4.73108 12.7817 4.62043 12.6526C4.50979 12.5235 4.40836 12.3898 4.31616 12.2515L4.80023 11.7813C4.83711 11.7352 4.86017 11.6844 4.86939 11.6291C4.87861 11.5738 4.86939 11.5231 4.84172 11.477C4.7403 11.3018 4.6527 11.1243 4.57894 10.9445C4.50518 10.7647 4.44063 10.5826 4.38531 10.3982C4.37609 10.3429 4.34843 10.2968 4.30233 10.2599C4.25622 10.223 4.20551 10.2046 4.15019 10.2046H3.47248C3.40794 9.87262 3.37567 9.53838 3.37567 9.20183C3.37567 8.86528 3.40794 8.53104 3.47248 8.1991H4.15019C4.20551 8.1991 4.25622 8.18066 4.30233 8.14378C4.34843 8.1069 4.37609 8.06079 4.38531 8.00547C4.44063 7.82106 4.50518 7.63896 4.57894 7.45916C4.6527 7.27936 4.7403 7.10186 4.84172 6.92668C4.86939 6.88057 4.87861 6.82986 4.86939 6.77454C4.86017 6.71921 4.83711 6.6685 4.80023 6.6224L4.31616 6.15215C4.40836 6.01385 4.50979 5.87785 4.62043 5.74415C4.73108 5.61045 4.84633 5.48367 4.9662 5.3638C5.08607 5.24394 5.21054 5.13099 5.33963 5.02495C5.46872 4.91891 5.60241 4.81979 5.74072 4.72759L6.21097 5.19783C6.25707 5.24394 6.30778 5.26929 6.3631 5.2739C6.41843 5.27851 6.47375 5.26699 6.52907 5.23933C6.69504 5.14712 6.86793 5.06414 7.04773 4.99037C7.22752 4.91661 7.40963 4.85207 7.59404 4.79674C7.64936 4.78752 7.69546 4.75986 7.73235 4.71376C7.76923 4.66766 7.78767 4.61233 7.78767 4.54779V3.88392C8.11961 3.81937 8.45385 3.7871 8.7904 3.7871C9.12694 3.7871 9.46119 3.81937 9.79312 3.88392V4.54779C9.79312 4.61233 9.81157 4.66766 9.84845 4.71376C9.88533 4.75986 9.93143 4.78752 9.98675 4.79674C10.1712 4.85207 10.3533 4.91661 10.5331 4.99037C10.7129 5.06414 10.8904 5.14712 11.0656 5.23933C11.1117 5.26699 11.1624 5.27851 11.2177 5.2739C11.273 5.26929 11.3237 5.24394 11.3698 5.19783L11.8401 4.72759C11.9784 4.81979 12.1144 4.91891 12.2481 5.02495C12.3818 5.13099 12.5086 5.24394 12.6284 5.3638C12.7483 5.48367 12.8612 5.61045 12.9673 5.74415C13.0733 5.87785 13.1724 6.01385 13.2646 6.15215L12.7944 6.6224C12.7483 6.6685 12.7229 6.71921 12.7183 6.77454C12.7137 6.82986 12.7252 6.88057 12.7529 6.92668C12.8451 7.10186 12.9281 7.27936 13.0019 7.45916C13.0756 7.63896 13.1402 7.82106 13.1955 8.00547C13.2139 8.06079 13.2439 8.1069 13.2854 8.14378C13.3269 8.18066 13.3799 8.1991 13.4444 8.1991H14.1221C14.1775 8.53104 14.2051 8.86528 14.2051 9.20183C14.2051 9.53838 14.1775 9.87262 14.1221 10.2046ZM7.89831 8.30975C7.64936 8.54948 7.52489 8.84454 7.52489 9.19491C7.52489 9.54529 7.64936 9.84496 7.89831 10.0939C8.01818 10.223 8.15649 10.3175 8.31324 10.3774C8.46998 10.4374 8.63134 10.4673 8.79731 10.4673C8.95406 10.4673 9.11081 10.4374 9.26756 10.3774C9.4243 10.3175 9.56261 10.223 9.68248 10.0939C9.93143 9.84496 10.0559 9.54529 10.0559 9.19491C10.0559 8.84454 9.93143 8.54948 9.68248 8.30975C9.44275 8.06079 9.14769 7.93632 8.79731 7.93632C8.44693 7.93632 8.14727 8.06079 7.89831 8.30975ZM9.32288 9.73431C9.17535 9.88184 8.99786 9.9556 8.7904 9.9556C8.58294 9.9556 8.40544 9.88184 8.25791 9.73431C8.11039 9.58678 8.03662 9.40929 8.03662 9.20183C8.03662 8.99437 8.11039 8.81687 8.25791 8.66935C8.33168 8.59558 8.41466 8.54026 8.50687 8.50338C8.59907 8.4665 8.69589 8.44806 8.79731 8.44806C8.88952 8.44806 8.98172 8.4665 9.07393 8.50338C9.16613 8.54026 9.24912 8.59558 9.32288 8.66935C9.47963 8.81687 9.558 8.99437 9.558 9.20183C9.558 9.40929 9.47963 9.58678 9.32288 9.73431Z" fill="white"/>
</svg>
