<svg width="15" height="15" viewBox="0 0 15 15" fill="none" xmlns="http://www.w3.org/2000/svg">
<path d="M1.76103 5.09991H0.516264C0.424059 5.09991 0.345685 5.13449 0.281141 5.20364C0.216598 5.2728 0.184326 5.35348 0.184326 5.44568C0.184326 5.53789 0.216598 5.61857 0.281141 5.68772C0.345685 5.75687 0.424059 5.79145 0.516264 5.79145H1.76103C1.85323 5.79145 1.93161 5.75687 1.99615 5.68772C2.06069 5.61857 2.09297 5.53789 2.09297 5.44568C2.09297 5.35348 2.06069 5.2728 1.99615 5.20364C1.93161 5.13449 1.85323 5.09991 1.76103 5.09991ZM13.9874 5.09991H12.7426C12.6504 5.09991 12.572 5.13449 12.5075 5.20364C12.443 5.2728 12.4107 5.35348 12.4107 5.44568C12.4107 5.53789 12.443 5.61857 12.5075 5.68772C12.572 5.75687 12.6504 5.79145 12.7426 5.79145H13.9874C14.0796 5.79145 14.158 5.75687 14.2225 5.68772C14.2871 5.61857 14.3193 5.53789 14.3193 5.44568C14.3193 5.35348 14.2871 5.2728 14.2225 5.20364C14.158 5.13449 14.0796 5.09991 13.9874 5.09991ZM3.17176 9.52575C3.098 9.4612 3.01501 9.42893 2.92281 9.42893C2.83061 9.42893 2.75223 9.4612 2.68769 9.52575L1.78869 10.4247C1.72415 10.4893 1.69188 10.57 1.69188 10.6668C1.69188 10.7636 1.72415 10.8443 1.78869 10.9088C1.81635 10.9457 1.85323 10.9711 1.89934 10.9849C1.94544 10.9987 1.98693 11.0056 2.02381 11.0056C2.06992 11.0056 2.11371 10.9987 2.1552 10.9849C2.1967 10.9711 2.23588 10.9457 2.27277 10.9088L3.17176 10.0098C3.23631 9.94528 3.26858 9.8646 3.26858 9.76778C3.26858 9.67097 3.23631 9.59029 3.17176 9.52575ZM12.0926 0.604928C12.028 0.540384 11.9474 0.508113 11.8505 0.508113C11.7537 0.508113 11.673 0.540384 11.6085 0.604928L10.7372 1.47626C10.6634 1.54081 10.6265 1.62149 10.6265 1.7183C10.6265 1.81512 10.6634 1.8958 10.7372 1.96034C10.7648 1.99722 10.7994 2.02258 10.8409 2.03641C10.8824 2.05024 10.9262 2.05715 10.9723 2.05715C11.0184 2.05715 11.0622 2.05024 11.1037 2.03641C11.1452 2.02258 11.1844 1.99722 11.2212 1.96034L12.0926 1.089C12.1571 1.02446 12.1894 0.943781 12.1894 0.846966C12.1894 0.750151 12.1571 0.669472 12.0926 0.604928ZM3.76648 1.47626L2.89515 0.604928C2.83061 0.540384 2.74993 0.508113 2.65311 0.508113C2.5563 0.508113 2.47562 0.540384 2.41107 0.604928C2.34653 0.669472 2.31426 0.750151 2.31426 0.846966C2.31426 0.943781 2.34653 1.02446 2.41107 1.089L3.28241 1.96034C3.31929 1.99722 3.35848 2.02258 3.39997 2.03641C3.44146 2.05024 3.48526 2.05715 3.53136 2.05715C3.56824 2.05715 3.60974 2.05024 3.65584 2.03641C3.70194 2.02258 3.73882 1.99722 3.76648 1.96034C3.83103 1.8958 3.8633 1.81512 3.8633 1.7183C3.8633 1.62149 3.83103 1.54081 3.76648 1.47626ZM12.715 10.4247L11.8298 9.52575C11.756 9.4612 11.673 9.42893 11.5808 9.42893C11.4886 9.42893 11.4103 9.4612 11.3457 9.52575C11.272 9.59951 11.2351 9.68249 11.2351 9.7747C11.2351 9.8669 11.272 9.94528 11.3457 10.0098L12.2309 10.9088C12.2678 10.9457 12.307 10.9711 12.3485 10.9849C12.3899 10.9987 12.4337 11.0056 12.4798 11.0056C12.5167 11.0056 12.5582 10.9987 12.6043 10.9849C12.6504 10.9711 12.6873 10.9457 12.715 10.9088C12.7795 10.8443 12.8118 10.7636 12.8118 10.6668C12.8118 10.57 12.7795 10.4893 12.715 10.4247ZM7.25183 1.43477C6.66172 1.43477 6.10388 1.55464 5.57831 1.79437C5.06196 2.02488 4.60785 2.34299 4.21598 2.74869C3.82411 3.15439 3.51753 3.63386 3.29624 4.18709C3.06573 4.73109 2.95047 5.31199 2.95047 5.92976C2.95047 6.50143 3.04959 7.08462 3.24783 7.67934C3.44607 8.27407 3.72499 8.82499 4.08459 9.33212C4.36121 9.71938 4.57097 10.1251 4.71389 10.5492C4.85681 10.9734 4.92827 11.4021 4.92827 11.8355V13.9792C4.92827 14.1729 4.99511 14.3365 5.12881 14.4702C5.26251 14.6039 5.42617 14.6708 5.6198 14.6708H8.88385C9.07748 14.6708 9.24115 14.6039 9.37484 14.4702C9.50854 14.3365 9.57539 14.1729 9.57539 13.9792V11.8355C9.57539 11.4021 9.64685 10.9734 9.78977 10.5492C9.93268 10.1251 10.1424 9.71938 10.4191 9.33212C10.7787 8.82499 11.0576 8.27407 11.2558 7.67934C11.4541 7.08462 11.5532 6.50143 11.5532 5.92976C11.5532 5.31199 11.4379 4.73109 11.2074 4.18709C10.9861 3.63386 10.6795 3.15439 10.2877 2.74869C9.8958 2.34299 9.44169 2.02488 8.92535 1.79437C8.39978 1.55464 7.84194 1.43477 7.25183 1.43477ZM8.88385 13.9792H5.6198V13.5367H7.25183C7.34403 13.5367 7.42471 13.5021 7.49387 13.4329C7.56302 13.3638 7.5976 13.2831 7.5976 13.1909C7.5976 13.0987 7.56302 13.018 7.49387 12.9489C7.42471 12.8797 7.34403 12.8451 7.25183 12.8451H5.6198V12.4025H8.88385V13.9792ZM6.76775 7.58944L6.31134 6.60746H8.19232L7.7359 7.58944C7.72668 7.60789 7.71977 7.62863 7.71516 7.65168C7.71055 7.67473 7.70363 7.69548 7.69441 7.71392L7.43163 11.711H7.07203L6.80924 7.71392C6.80002 7.69548 6.79311 7.67473 6.7885 7.65168C6.78389 7.62863 6.77697 7.60789 6.76775 7.58944ZM9.852 8.93103C9.54773 9.36439 9.31491 9.81619 9.15355 10.2864C8.99219 10.7567 8.90229 11.2315 8.88385 11.711H8.12316L8.38595 7.82457L9.03599 6.41383C9.06365 6.35851 9.07518 6.30319 9.07057 6.24786C9.06596 6.19254 9.04982 6.13722 9.02216 6.0819C8.98528 6.03579 8.94148 5.99891 8.89077 5.97125C8.84006 5.94359 8.78704 5.92976 8.73172 5.92976H5.77194C5.71662 5.92976 5.6636 5.94359 5.61289 5.97125C5.56217 5.99891 5.51838 6.03579 5.48149 6.0819C5.45383 6.13722 5.4377 6.19254 5.43309 6.24786C5.42848 6.30319 5.44 6.35851 5.46766 6.41383L6.11771 7.82457L6.38049 11.711H5.6198C5.60136 11.2315 5.51146 10.7567 5.3501 10.2864C5.18874 9.81619 4.95593 9.36439 4.65165 8.93103C4.32893 8.48844 4.07998 8.00206 3.90479 7.47188C3.7296 6.94171 3.64201 6.42766 3.64201 5.92976C3.64201 5.40419 3.73421 4.91089 3.91862 4.44987C4.11225 3.98885 4.37273 3.58545 4.70006 3.23968C5.02739 2.89391 5.40773 2.6196 5.84109 2.41675C6.28368 2.22312 6.75392 2.12631 7.25183 2.12631C7.74973 2.12631 8.21998 2.22312 8.66256 2.41675C9.09592 2.6196 9.47627 2.89391 9.8036 3.23968C10.1309 3.58545 10.3914 3.98885 10.585 4.44987C10.7694 4.91089 10.8616 5.40419 10.8616 5.92976C10.8616 6.42766 10.7741 6.94171 10.5989 7.47188C10.4237 8.00206 10.1747 8.48844 9.852 8.93103Z" fill="white"/>
</svg>
