<svg xmlns="http://www.w3.org/2000/svg" xmlns:xlink="http://www.w3.org/1999/xlink" width="1920" zoomAndPan="magnify" viewBox="0 0 1440 809.999993" height="1080" preserveAspectRatio="xMidYMid meet" version="1.2"><defs><clipPath id="522a8a9db4"><path d="M 901 237.371094 L 1109.953125 237.371094 L 1109.953125 447 L 901 447 Z M 901 237.371094 "/></clipPath><clipPath id="b0f77a7bc5"><path d="M 967 440 L 996 440 L 996 467.621094 L 967 467.621094 Z M 967 440 "/></clipPath></defs><g id="35fcf40568"><g clip-rule="nonzero" clip-path="url(#522a8a9db4)"><path style=" stroke:none;fill-rule:nonzero;fill:#dc00f9;fill-opacity:1;" d="M 1105.589844 237.496094 C 1091.902344 237.496094 1075.980469 240.46875 1059.332031 246.042969 C 1059.320312 246.046875 1059.3125 246.042969 1059.296875 246.046875 C 1059.289062 246.050781 1059.285156 246.054688 1059.277344 246.058594 C 1057.925781 246.511719 1056.578125 246.949219 1055.21875 247.433594 C 1055.089844 247.484375 1054.949219 247.539062 1054.816406 247.605469 C 1051.457031 248.820312 1048.152344 250.132812 1044.898438 251.503906 C 1044.882812 251.507812 1044.863281 251.519531 1044.847656 251.523438 C 1024.664062 260.023438 1006.742188 271.347656 994.65625 283.433594 L 971.113281 306.976562 L 951.46875 306.976562 C 942.015625 306.976562 933.125 310.660156 926.4375 317.347656 L 902.851562 340.929688 C 901.574219 342.207031 901.203125 344.136719 901.914062 345.800781 C 902.609375 347.425781 904.214844 348.480469 905.980469 348.480469 C 906.015625 348.480469 906.050781 348.480469 906.085938 348.480469 L 943.65625 347.574219 C 941.855469 357.421875 942.945312 367.652344 947.15625 376.863281 C 934.371094 389.992188 924.535156 407.308594 932.546875 415.324219 C 934.554688 417.335938 937.152344 418.21875 940.121094 418.21875 C 949.003906 418.21875 961.203125 410.265625 971.046875 400.664062 C 977.417969 403.570312 984.25 405.078125 991.140625 405.078125 C 994.203125 405.078125 997.269531 404.761719 1000.300781 404.210938 L 999.394531 441.789062 C 999.351562 443.597656 1000.414062 445.246094 1002.074219 445.960938 C 1002.636719 446.199219 1003.230469 446.316406 1003.816406 446.316406 C 1004.96875 446.316406 1006.101562 445.867188 1006.945312 445.023438 L 1030.527344 421.4375 C 1037.214844 414.75 1040.898438 405.859375 1040.898438 396.40625 L 1040.898438 376.75 L 1064.265625 353.355469 C 1076.433594 341.222656 1087.792969 323.183594 1096.285156 302.859375 C 1096.285156 302.855469 1096.289062 302.855469 1096.289062 302.851562 C 1097.707031 299.457031 1099.066406 296.015625 1100.3125 292.507812 C 1100.777344 291.203125 1101.191406 289.914062 1101.625 288.617188 C 1101.644531 288.582031 1101.671875 288.550781 1101.6875 288.515625 C 1101.710938 288.460938 1101.695312 288.40625 1101.71875 288.347656 C 1107.28125 271.632812 1110.203125 255.644531 1110.132812 241.898438 C 1110.113281 239.460938 1108.019531 237.496094 1105.589844 237.496094 Z M 946.125 338.667969 L 916.917969 339.371094 L 932.683594 323.601562 C 937.703125 318.585938 944.371094 315.820312 951.464844 315.820312 L 962.265625 315.820312 L 958.132812 319.953125 C 952.703125 325.390625 948.691406 331.816406 946.125 338.667969 Z M 962.8125 363.960938 C 959.921875 365.804688 956.980469 367.96875 954.066406 370.433594 C 951.332031 362.992188 950.933594 354.894531 952.738281 347.15625 C 955.347656 353.511719 959.394531 359.519531 962.8125 363.960938 Z M 965.714844 393.535156 C 951.785156 407.46875 940.269531 410.535156 938.800781 409.070312 C 937.339844 407.605469 940.410156 396.082031 954.339844 382.15625 C 960.492188 376.007812 967.078125 371.121094 972.886719 368.402344 C 976.308594 366.800781 978.652344 366.367188 979.980469 366.367188 C 980.691406 366.367188 981.109375 366.488281 981.246094 366.628906 C 981.636719 367.015625 981.9375 369.722656 979.476562 374.988281 C 976.75 380.800781 971.859375 387.382812 965.714844 393.535156 Z M 977.4375 393.804688 C 979.90625 390.886719 982.078125 387.9375 983.921875 385.035156 C 988.4375 388.5 994.492188 392.507812 1000.898438 395.085938 C 993.113281 396.9375 984.941406 396.550781 977.4375 393.804688 Z M 1032.050781 396.402344 C 1032.050781 403.496094 1029.285156 410.164062 1024.269531 415.183594 L 1008.503906 430.949219 L 1009.214844 401.722656 C 1016.070312 399.152344 1022.507812 395.152344 1027.945312 389.714844 L 1032.054688 385.601562 L 1032.054688 396.402344 Z M 1058.007812 347.097656 L 1021.6875 383.457031 C 1020.085938 385.058594 1018.378906 386.503906 1016.597656 387.8125 C 1016.589844 387.816406 1016.574219 387.816406 1016.566406 387.828125 C 1011.289062 390.878906 1000.085938 386.539062 988.160156 377.089844 C 992.003906 367.847656 990.015625 362.886719 987.496094 360.371094 C 984.984375 357.847656 980.023438 355.855469 970.761719 359.714844 C 961.84375 348.5 957.378906 337.71875 959.476562 332.089844 C 960.929688 330.019531 962.554688 328.039062 964.390625 326.203125 L 976.066406 314.53125 C 976.070312 314.527344 976.070312 314.527344 976.074219 314.523438 L 1000.910156 289.6875 C 1011.082031 279.511719 1025.808594 269.871094 1042.59375 262.171875 C 1044.367188 270.84375 1050.015625 280.484375 1058.664062 289.125 C 1067.316406 297.761719 1076.960938 303.386719 1085.625 305.148438 C 1077.933594 322.0625 1068.257812 336.875 1058.007812 347.097656 Z M 1089.195312 296.8125 C 1082 295.980469 1072.832031 290.769531 1064.917969 282.867188 C 1057 274.960938 1051.769531 265.769531 1050.929688 258.589844 C 1053.082031 257.726562 1055.246094 256.878906 1057.441406 256.085938 C 1057.4375 256.144531 1057.453125 256.203125 1057.449219 256.261719 C 1057.234375 260.722656 1060.933594 269.464844 1069.609375 278.140625 C 1078.335938 286.867188 1087.121094 290.539062 1091.601562 290.296875 C 1091.628906 290.296875 1091.660156 290.300781 1091.683594 290.300781 C 1090.894531 292.496094 1090.058594 294.664062 1089.195312 296.8125 Z M 1094.515625 281.636719 C 1093.382812 281.496094 1092.242188 281.402344 1091.09375 281.464844 C 1089.632812 281.652344 1083.246094 279.265625 1075.839844 271.859375 C 1068.511719 264.535156 1066.277344 258.167969 1066.285156 256.742188 C 1066.355469 255.558594 1066.265625 254.382812 1066.121094 253.210938 C 1078.523438 249.371094 1090.625 246.980469 1101.191406 246.457031 C 1100.710938 257.015625 1098.34375 269.167969 1094.515625 281.636719 Z M 1094.515625 281.636719 "/></g><path style=" stroke:none;fill-rule:nonzero;fill:#dc00f9;fill-opacity:1;" d="M 1024.957031 293.398438 C 1016.9375 293.398438 1009.402344 296.519531 1003.738281 302.183594 C 998.070312 307.847656 994.953125 315.382812 994.953125 323.402344 C 994.953125 331.417969 998.070312 338.953125 1003.738281 344.617188 C 1009.402344 350.289062 1016.9375 353.40625 1024.957031 353.40625 C 1032.972656 353.40625 1040.507812 350.285156 1046.171875 344.617188 C 1051.84375 338.949219 1054.960938 331.417969 1054.960938 323.402344 C 1054.960938 315.382812 1051.84375 307.847656 1046.171875 302.183594 C 1040.507812 296.519531 1032.972656 293.398438 1024.957031 293.398438 Z M 1039.921875 338.371094 C 1035.925781 342.367188 1030.613281 344.566406 1024.957031 344.566406 C 1019.300781 344.566406 1013.988281 342.363281 1009.992188 338.371094 C 1005.992188 334.371094 1003.796875 329.0625 1003.796875 323.40625 C 1003.796875 317.753906 1005.992188 312.4375 1009.992188 308.441406 C 1013.984375 304.445312 1019.300781 302.246094 1024.957031 302.246094 C 1030.613281 302.246094 1035.921875 304.449219 1039.921875 308.441406 C 1043.917969 312.4375 1046.117188 317.75 1046.117188 323.40625 C 1046.117188 329.058594 1043.917969 334.371094 1039.921875 338.371094 Z M 1039.921875 338.371094 "/><path style=" stroke:none;fill-rule:nonzero;fill:#dc00f9;fill-opacity:1;" d="M 887.660156 378.722656 L 906.144531 360.238281 C 907.871094 358.507812 907.871094 355.714844 906.144531 353.984375 C 904.414062 352.253906 901.621094 352.253906 899.890625 353.984375 L 881.40625 372.46875 C 879.675781 374.199219 879.675781 376.992188 881.40625 378.722656 C 882.269531 379.585938 883.402344 380.015625 884.53125 380.015625 C 885.664062 380.015625 886.796875 379.585938 887.660156 378.722656 Z M 887.660156 378.722656 "/><path style=" stroke:none;fill-rule:nonzero;fill:#dc00f9;fill-opacity:1;" d="M 928.832031 418.914062 C 927.105469 417.183594 924.308594 417.183594 922.582031 418.914062 L 893.972656 447.515625 C 892.246094 449.246094 892.246094 452.039062 893.972656 453.769531 C 894.835938 454.632812 895.96875 455.066406 897.101562 455.066406 C 898.230469 455.066406 899.363281 454.632812 900.226562 453.769531 L 928.832031 425.167969 C 930.558594 423.441406 930.558594 420.644531 928.832031 418.914062 Z M 928.832031 418.914062 "/><path style=" stroke:none;fill-rule:nonzero;fill:#dc00f9;fill-opacity:1;" d="M 915.898438 386.167969 C 914.167969 384.441406 911.375 384.441406 909.644531 386.167969 L 885.433594 410.378906 C 883.707031 412.109375 883.707031 414.902344 885.433594 416.632812 C 886.296875 417.496094 887.429688 417.929688 888.5625 417.929688 C 889.691406 417.929688 890.824219 417.496094 891.6875 416.632812 L 915.898438 392.421875 C 917.628906 390.695312 917.628906 387.898438 915.898438 386.167969 Z M 915.898438 386.167969 "/><g clip-rule="nonzero" clip-path="url(#b0f77a7bc5)"><path style=" stroke:none;fill-rule:nonzero;fill:#dc00f9;fill-opacity:1;" d="M 987.507812 441.605469 L 969.023438 460.089844 C 967.296875 461.816406 967.296875 464.613281 969.023438 466.339844 C 969.886719 467.203125 971.019531 467.636719 972.152344 467.636719 C 973.285156 467.636719 974.414062 467.203125 975.277344 466.339844 L 993.761719 447.855469 C 995.492188 446.128906 995.492188 443.332031 993.761719 441.605469 C 992.035156 439.875 989.238281 439.875 987.507812 441.605469 Z M 987.507812 441.605469 "/></g><path style=" stroke:none;fill-rule:nonzero;fill:#dc00f9;fill-opacity:1;" d="M 955.324219 431.847656 L 931.113281 456.058594 C 929.386719 457.789062 929.386719 460.582031 931.113281 462.3125 C 931.976562 463.175781 933.109375 463.609375 934.242188 463.609375 C 935.375 463.609375 936.503906 463.175781 937.367188 462.3125 L 961.578125 438.101562 C 963.308594 436.371094 963.308594 433.578125 961.578125 431.847656 C 959.847656 430.121094 957.054688 430.121094 955.324219 431.847656 Z M 955.324219 431.847656 "/><g style="fill:#ffffff;fill-opacity:1;"><g transform="translate(412.159323, 567.821943)"><path style="stroke:none" d="M 1.390625 0 L 1.390625 -13.59375 L 3.828125 -13.59375 L 3.828125 -8.421875 L 4.015625 -8.390625 C 4.335938 -8.867188 4.734375 -9.234375 5.203125 -9.484375 C 5.671875 -9.742188 6.238281 -9.875 6.90625 -9.875 C 9.039062 -9.875 10.109375 -8.660156 10.109375 -6.234375 L 10.109375 0 L 7.671875 0 L 7.671875 -5.9375 C 7.671875 -6.59375 7.535156 -7.070312 7.265625 -7.375 C 7.003906 -7.675781 6.597656 -7.828125 6.046875 -7.828125 C 5.367188 -7.828125 4.828125 -7.597656 4.421875 -7.140625 C 4.023438 -6.679688 3.828125 -5.972656 3.828125 -5.015625 L 3.828125 0 Z M 1.390625 0 "/></g></g><g style="fill:#ffffff;fill-opacity:1;"><g transform="translate(423.400533, 567.821943)"><path style="stroke:none" d="M 2.140625 4.109375 C 1.722656 4.109375 1.347656 4.078125 1.015625 4.015625 C 0.679688 3.953125 0.40625 3.867188 0.1875 3.765625 L 0.578125 1.796875 L 0.734375 1.734375 C 0.878906 1.816406 1.0625 1.878906 1.28125 1.921875 C 1.5 1.972656 1.722656 2 1.953125 2 C 2.347656 2 2.675781 1.945312 2.9375 1.84375 C 3.195312 1.738281 3.414062 1.566406 3.59375 1.328125 C 3.78125 1.085938 3.941406 0.757812 4.078125 0.34375 L 0.21875 -9.6875 L 2.765625 -9.6875 L 5.171875 -2.953125 L 5.375 -2.953125 L 7.71875 -9.6875 L 10.203125 -9.6875 L 6.3125 0.609375 C 6 1.441406 5.65625 2.109375 5.28125 2.609375 C 4.914062 3.117188 4.476562 3.492188 3.96875 3.734375 C 3.457031 3.984375 2.847656 4.109375 2.140625 4.109375 Z M 2.140625 4.109375 "/></g><g transform="translate(433.806782, 567.821943)"><path style="stroke:none" d="M 2.140625 4.109375 C 1.722656 4.109375 1.347656 4.078125 1.015625 4.015625 C 0.679688 3.953125 0.40625 3.867188 0.1875 3.765625 L 0.578125 1.796875 L 0.734375 1.734375 C 0.878906 1.816406 1.0625 1.878906 1.28125 1.921875 C 1.5 1.972656 1.722656 2 1.953125 2 C 2.347656 2 2.675781 1.945312 2.9375 1.84375 C 3.195312 1.738281 3.414062 1.566406 3.59375 1.328125 C 3.78125 1.085938 3.941406 0.757812 4.078125 0.34375 L 0.21875 -9.6875 L 2.765625 -9.6875 L 5.171875 -2.953125 L 5.375 -2.953125 L 7.71875 -9.6875 L 10.203125 -9.6875 L 6.3125 0.609375 C 6 1.441406 5.65625 2.109375 5.28125 2.609375 C 4.914062 3.117188 4.476562 3.492188 3.96875 3.734375 C 3.457031 3.984375 2.847656 4.109375 2.140625 4.109375 Z M 2.140625 4.109375 "/></g><g transform="translate(444.213032, 567.821943)"><path style="stroke:none" d="M 2.140625 4.109375 C 1.722656 4.109375 1.347656 4.078125 1.015625 4.015625 C 0.679688 3.953125 0.40625 3.867188 0.1875 3.765625 L 0.578125 1.796875 L 0.734375 1.734375 C 0.878906 1.816406 1.0625 1.878906 1.28125 1.921875 C 1.5 1.972656 1.722656 2 1.953125 2 C 2.347656 2 2.675781 1.945312 2.9375 1.84375 C 3.195312 1.738281 3.414062 1.566406 3.59375 1.328125 C 3.78125 1.085938 3.941406 0.757812 4.078125 0.34375 L 0.21875 -9.6875 L 2.765625 -9.6875 L 5.171875 -2.953125 L 5.375 -2.953125 L 7.71875 -9.6875 L 10.203125 -9.6875 L 6.3125 0.609375 C 6 1.441406 5.65625 2.109375 5.28125 2.609375 C 4.914062 3.117188 4.476562 3.492188 3.96875 3.734375 C 3.457031 3.984375 2.847656 4.109375 2.140625 4.109375 Z M 2.140625 4.109375 "/></g><g transform="translate(454.619281, 567.821943)"><path style="stroke:none" d="M 2.140625 4.109375 C 1.722656 4.109375 1.347656 4.078125 1.015625 4.015625 C 0.679688 3.953125 0.40625 3.867188 0.1875 3.765625 L 0.578125 1.796875 L 0.734375 1.734375 C 0.878906 1.816406 1.0625 1.878906 1.28125 1.921875 C 1.5 1.972656 1.722656 2 1.953125 2 C 2.347656 2 2.675781 1.945312 2.9375 1.84375 C 3.195312 1.738281 3.414062 1.566406 3.59375 1.328125 C 3.78125 1.085938 3.941406 0.757812 4.078125 0.34375 L 0.21875 -9.6875 L 2.765625 -9.6875 L 5.171875 -2.953125 L 5.375 -2.953125 L 7.71875 -9.6875 L 10.203125 -9.6875 L 6.3125 0.609375 C 6 1.441406 5.65625 2.109375 5.28125 2.609375 C 4.914062 3.117188 4.476562 3.492188 3.96875 3.734375 C 3.457031 3.984375 2.847656 4.109375 2.140625 4.109375 Z M 2.140625 4.109375 "/></g><g transform="translate(465.025531, 567.821943)"><path style="stroke:none" d="M 2.140625 4.109375 C 1.722656 4.109375 1.347656 4.078125 1.015625 4.015625 C 0.679688 3.953125 0.40625 3.867188 0.1875 3.765625 L 0.578125 1.796875 L 0.734375 1.734375 C 0.878906 1.816406 1.0625 1.878906 1.28125 1.921875 C 1.5 1.972656 1.722656 2 1.953125 2 C 2.347656 2 2.675781 1.945312 2.9375 1.84375 C 3.195312 1.738281 3.414062 1.566406 3.59375 1.328125 C 3.78125 1.085938 3.941406 0.757812 4.078125 0.34375 L 0.21875 -9.6875 L 2.765625 -9.6875 L 5.171875 -2.953125 L 5.375 -2.953125 L 7.71875 -9.6875 L 10.203125 -9.6875 L 6.3125 0.609375 C 6 1.441406 5.65625 2.109375 5.28125 2.609375 C 4.914062 3.117188 4.476562 3.492188 3.96875 3.734375 C 3.457031 3.984375 2.847656 4.109375 2.140625 4.109375 Z M 2.140625 4.109375 "/></g></g></g></svg>