<svg width="26" height="25" viewBox="0 0 26 25" fill="none" xmlns="http://www.w3.org/2000/svg">
<path d="M9.28857 23.0646C9.28857 23.2144 9.37176 23.3518 9.50403 23.4218C9.6362 23.4917 9.7969 23.4827 9.92044 23.3981L12.7027 21.4984L9.28863 19.8711V23.0646H9.28857Z" fill="white"/>
<path d="M25.84 1.63857C25.7636 1.56812 25.665 1.53125 25.5653 1.53125C25.5052 1.53125 25.4452 1.54458 25.3885 1.57246L1.36917 13.3546C1.12367 13.4753 0.968317 13.726 0.969984 14.0002C0.971651 14.2741 1.12963 14.5231 1.3769 14.6411L7.70727 17.6574L20.3648 7.25394L9.27569 18.4047L17.1618 22.1622C17.2586 22.2087 17.3644 22.2317 17.469 22.2317C17.5583 22.2317 17.6468 22.2155 17.7309 22.1824C17.9146 22.1098 18.0606 21.9643 18.1335 21.7806L25.9413 2.08372C26.0031 1.92872 25.9628 1.7515 25.84 1.63857Z" fill="white"/>
</svg>
