<svg xmlns="http://www.w3.org/2000/svg" viewBox="0 0 500 500"><g id="freepik--Charts--inject-78"><g id="freepik--Chart--inject-78"><path d="M32.26,134.6l123.5-70.85c1.73-1,3.14-.19,3.14,1.82v91.34a7,7,0,0,1-3.14,5.44L32.26,233.2c-1.74,1-3.15.19-3.15-1.81V140.05A7,7,0,0,1,32.26,134.6Z" style="fill:#DC00F9"></path><path d="M32.26,134.6l123.5-70.85c1.73-1,3.14-.19,3.14,1.82v91.34a7,7,0,0,1-3.14,5.44L32.26,233.2c-1.74,1-3.15.19-3.15-1.81V140.05A7,7,0,0,1,32.26,134.6Z" style="fill:#fff;opacity:0.9"></path><path d="M157.16,64.32h0c.64,0,.74.78.74,1.25v91.34a5.93,5.93,0,0,1-2.64,4.57L31.76,232.34a1.9,1.9,0,0,1-.91.29c-.64,0-.74-.78-.74-1.24V140.05a5.94,5.94,0,0,1,2.64-4.58L156.26,64.62a1.78,1.78,0,0,1,.9-.3m0-1a2.85,2.85,0,0,0-1.4.43L32.26,134.6a7,7,0,0,0-3.15,5.45v91.34c0,1.42.71,2.24,1.74,2.24a2.91,2.91,0,0,0,1.41-.43l123.5-70.85a7,7,0,0,0,3.14-5.44V65.57c0-1.43-.71-2.25-1.74-2.25Z" style="fill:#DC00F9;opacity:0.30000000000000004"></path><g style="opacity:0.30000000000000004"><path d="M43.93,214.21a202.89,202.89,0,0,1,1.51-21.56c.92-7.78,2.81-20.89,10.31-25.22s10.31,3.49,11.39,7.34c1.41,5,8.74,1.84,9.77-6.4s1.68-34.48,10.46-39.55S99,136,100,139.37c2,6.69,7.74,4.85,9.62.41s7-5.52,8.95.72,3.15,13.4,9.43,9.72c5.51-3.22,3-9.11,8.36-11.89,4.25-2.21,6.22,8.29,6.22,18.92Z" style="fill:#DC00F9"></path><path d="M44.82,162.1c0,1.15,1,1.48,2.29.75l12.45-7.17a4.57,4.57,0,0,0,2.29-3.39c0-1.15-1-1.48-2.29-.75l-12.45,7.17A4.6,4.6,0,0,0,44.82,162.1Z" style="fill:#DC00F9"></path><path d="M79.66,125.31c0,1.14,1,1.47,2.3.74l12.44-7.16a4.62,4.62,0,0,0,2.3-3.4c0-1.14-1-1.48-2.3-.75L82,121.91A4.59,4.59,0,0,0,79.66,125.31Z" style="fill:#DC00F9"></path><path d="M104.15,130.1c0,1.15,1,1.48,2.3.75l12.44-7.17a4.59,4.59,0,0,0,2.3-3.39c0-1.15-1-1.48-2.3-.75l-12.44,7.17A4.59,4.59,0,0,0,104.15,130.1Z" style="fill:#DC00F9"></path><path d="M127.05,135.36c0,1.14,1,1.48,2.29.74l12.45-7.16a4.57,4.57,0,0,0,2.29-3.4c0-1.14-1-1.48-2.29-.74L129.34,132A4.6,4.6,0,0,0,127.05,135.36Z" style="fill:#DC00F9"></path></g><path d="M55.75,168.93a.5.5,0,0,1-.5-.5v-1a.5.5,0,0,1,.5-.5.5.5,0,0,1,.5.5v1A.51.51,0,0,1,55.75,168.93Z" style="fill:#fff"></path><path d="M55.75,203.26a.5.5,0,0,1-.5-.5v-1.91a.5.5,0,0,1,.5-.5.51.51,0,0,1,.5.5v1.91A.5.5,0,0,1,55.75,203.26Zm0-5.72a.5.5,0,0,1-.5-.5v-1.91a.5.5,0,0,1,.5-.5.5.5,0,0,1,.5.5V197A.51.51,0,0,1,55.75,197.54Zm0-5.72a.5.5,0,0,1-.5-.5v-1.91a.5.5,0,0,1,.5-.5.5.5,0,0,1,.5.5v1.91A.51.51,0,0,1,55.75,191.82Zm0-5.73a.5.5,0,0,1-.5-.5v-1.9a.5.5,0,0,1,.5-.5.5.5,0,0,1,.5.5v1.9A.5.5,0,0,1,55.75,186.09Zm0-5.72a.5.5,0,0,1-.5-.5V178a.5.5,0,0,1,.5-.5.51.51,0,0,1,.5.5v1.91A.5.5,0,0,1,55.75,180.37Zm0-5.72a.5.5,0,0,1-.5-.5v-1.91a.5.5,0,0,1,.5-.5.5.5,0,0,1,.5.5v1.91A.51.51,0,0,1,55.75,174.65Z" style="fill:#fff"></path><path d="M55.75,208.08a.5.5,0,0,1-.5-.5v-1a.5.5,0,0,1,.5-.5.5.5,0,0,1,.5.5v1A.51.51,0,0,1,55.75,208.08Z" style="fill:#fff"></path><path d="M113.74,138a.5.5,0,0,1-.5-.5v-1a.5.5,0,0,1,.5-.5.5.5,0,0,1,.5.5v1A.5.5,0,0,1,113.74,138Z" style="fill:#fff"></path><path d="M113.74,169.33a.5.5,0,0,1-.5-.5v-2.09a.5.5,0,0,1,.5-.5.51.51,0,0,1,.5.5v2.09A.5.5,0,0,1,113.74,169.33Zm0-6.27a.5.5,0,0,1-.5-.5v-2.08a.5.5,0,0,1,.5-.5.5.5,0,0,1,.5.5v2.08A.5.5,0,0,1,113.74,163.06Zm0-6.26a.5.5,0,0,1-.5-.5v-2.09a.5.5,0,0,1,.5-.5.5.5,0,0,1,.5.5v2.09A.51.51,0,0,1,113.74,156.8Zm0-6.27a.5.5,0,0,1-.5-.5v-2.09a.5.5,0,0,1,.5-.5.5.5,0,0,1,.5.5V150A.51.51,0,0,1,113.74,150.53Zm0-6.27a.5.5,0,0,1-.5-.5v-2.09a.5.5,0,0,1,.5-.5.5.5,0,0,1,.5.5v2.09A.5.5,0,0,1,113.74,144.26Z" style="fill:#fff"></path><path d="M113.74,174.51a.5.5,0,0,1-.5-.5v-1a.5.5,0,0,1,.5-.5.51.51,0,0,1,.5.5v1A.5.5,0,0,1,113.74,174.51Z" style="fill:#fff"></path><path d="M136.38,139.83a.51.51,0,0,1-.5-.5v-1a.5.5,0,0,1,.5-.5h0a.5.5,0,0,1,.5.5v1a.5.5,0,0,1-.5.5Z" style="fill:#fff"></path><path d="M136.41,156.67a.5.5,0,0,1-.5-.5V154.3a.5.5,0,0,1,.5-.5h0a.5.5,0,0,1,.5.5v1.87A.5.5,0,0,1,136.41,156.67Zm0-5.61a.51.51,0,0,1-.5-.5v-1.87a.5.5,0,0,1,.5-.5h0a.49.49,0,0,1,.5.49v1.88a.5.5,0,0,1-.5.5Zm0-5.62a.5.5,0,0,1-.5-.5v-1.87a.51.51,0,0,1,.5-.5.5.5,0,0,1,.5.5v1.87a.5.5,0,0,1-.5.5Z" style="fill:#fff"></path><path d="M136.42,161.42a.51.51,0,0,1-.5-.5v-1a.5.5,0,0,1,.5-.5.54.54,0,0,1,.5.5v1a.5.5,0,0,1-.5.5Z" style="fill:#fff"></path><path d="M89.36,129.43a.5.5,0,0,1-.5-.5v-1a.51.51,0,0,1,.5-.5.5.5,0,0,1,.5.5v1A.5.5,0,0,1,89.36,129.43Z" style="fill:#fff"></path><path d="M89.36,183.57a.5.5,0,0,1-.5-.5v-2a.5.5,0,0,1,.5-.5.5.5,0,0,1,.5.5v2A.5.5,0,0,1,89.36,183.57Zm0-6a.51.51,0,0,1-.5-.5v-2a.51.51,0,0,1,.5-.5.5.5,0,0,1,.5.5v2A.5.5,0,0,1,89.36,177.56Zm0-6a.5.5,0,0,1-.5-.5v-2a.5.5,0,0,1,.5-.5.5.5,0,0,1,.5.5v2A.5.5,0,0,1,89.36,171.54Zm0-6a.51.51,0,0,1-.5-.5v-2a.51.51,0,0,1,.5-.5.5.5,0,0,1,.5.5v2A.5.5,0,0,1,89.36,165.53Zm0-6a.5.5,0,0,1-.5-.5v-2a.5.5,0,0,1,.5-.5.5.5,0,0,1,.5.5v2A.5.5,0,0,1,89.36,159.51Zm0-6a.51.51,0,0,1-.5-.5v-2a.5.5,0,0,1,.5-.5.5.5,0,0,1,.5.5v2A.5.5,0,0,1,89.36,153.5Zm0-6a.5.5,0,0,1-.5-.5v-2a.51.51,0,0,1,.5-.5.5.5,0,0,1,.5.5v2A.5.5,0,0,1,89.36,147.48Zm0-6a.5.5,0,0,1-.5-.5v-2a.5.5,0,0,1,.5-.5.5.5,0,0,1,.5.5v2A.5.5,0,0,1,89.36,141.46Zm0-6a.51.51,0,0,1-.5-.5v-2a.51.51,0,0,1,.5-.5.5.5,0,0,1,.5.5v2A.5.5,0,0,1,89.36,135.45Z" style="fill:#fff"></path><path d="M89.36,188.58a.5.5,0,0,1-.5-.5v-1a.51.51,0,0,1,.5-.5.5.5,0,0,1,.5.5v1A.5.5,0,0,1,89.36,188.58Z" style="fill:#fff"></path></g><g id="freepik--chart--inject-78"><path d="M467.48,134.6,344,63.75c-1.73-1-3.14-.19-3.14,1.82v91.34a7,7,0,0,0,3.14,5.44L467.48,233.2c1.73,1,3.14.19,3.14-1.81V140.05A7,7,0,0,0,467.48,134.6Z" style="fill:#DC00F9"></path><path d="M467.48,134.6,344,63.75c-1.73-1-3.14-.19-3.14,1.82v91.34a7,7,0,0,0,3.14,5.44L467.48,233.2c1.73,1,3.14.19,3.14-1.81V140.05A7,7,0,0,0,467.48,134.6Z" style="fill:#fff;opacity:0.9"></path><path d="M342.57,64.32a1.84,1.84,0,0,1,.91.3L467,135.47a5.94,5.94,0,0,1,2.64,4.58v91.34c0,.46-.1,1.24-.74,1.24a1.9,1.9,0,0,1-.91-.29l-123.5-70.86a5.93,5.93,0,0,1-2.64-4.57V65.57c0-.47.1-1.25.74-1.25m0-1c-1,0-1.74.82-1.74,2.25v91.34a7,7,0,0,0,3.14,5.44L467.48,233.2a2.85,2.85,0,0,0,1.4.43c1,0,1.74-.82,1.74-2.24V140.05a7,7,0,0,0-3.14-5.45L344,63.75a2.85,2.85,0,0,0-1.4-.43Z" style="fill:#DC00F9;opacity:0.30000000000000004"></path><polygon points="349.34 155.26 349.34 151.19 361.52 139.46 370.65 158.81 379.83 148.25 387.24 161.71 408.8 133.86 417.64 153.81 431.29 132.98 449.66 185.96 463.07 202.78 463.07 220.92 349.34 155.26" style="fill:#DC00F9;opacity:0.30000000000000004"></polygon><path d="M431.29,203a.5.5,0,0,1-.5-.5v-2a.51.51,0,0,1,.5-.5.5.5,0,0,1,.5.5v2A.5.5,0,0,1,431.29,203Zm0-6a.5.5,0,0,1-.5-.5v-2a.51.51,0,0,1,.5-.5.5.5,0,0,1,.5.5v2A.5.5,0,0,1,431.29,197Zm0-6a.5.5,0,0,1-.5-.5v-2a.51.51,0,0,1,.5-.5.5.5,0,0,1,.5.5v2A.5.5,0,0,1,431.29,191Zm0-6a.5.5,0,0,1-.5-.5v-2a.51.51,0,0,1,.5-.5.5.5,0,0,1,.5.5v2A.5.5,0,0,1,431.29,185Zm0-6a.5.5,0,0,1-.5-.5v-2a.51.51,0,0,1,.5-.5.5.5,0,0,1,.5.5v2A.5.5,0,0,1,431.29,179Zm0-6a.5.5,0,0,1-.5-.5v-2a.51.51,0,0,1,.5-.5.5.5,0,0,1,.5.5v2A.5.5,0,0,1,431.29,173Zm0-6a.5.5,0,0,1-.5-.5v-2a.51.51,0,0,1,.5-.5.5.5,0,0,1,.5.5v2A.5.5,0,0,1,431.29,167Zm0-6a.5.5,0,0,1-.5-.5v-2a.51.51,0,0,1,.5-.5.5.5,0,0,1,.5.5v2A.5.5,0,0,1,431.29,161Zm0-6a.5.5,0,0,1-.5-.5v-2a.51.51,0,0,1,.5-.5.5.5,0,0,1,.5.5v2A.5.5,0,0,1,431.29,155Zm0-6a.5.5,0,0,1-.5-.5v-2a.51.51,0,0,1,.5-.5.5.5,0,0,1,.5.5v2A.5.5,0,0,1,431.29,149Zm0-6a.5.5,0,0,1-.5-.5v-2a.51.51,0,0,1,.5-.5.5.5,0,0,1,.5.5v2A.5.5,0,0,1,431.29,143Zm0-6a.5.5,0,0,1-.5-.5v-2a.51.51,0,0,1,.5-.5.5.5,0,0,1,.5.5v2A.5.5,0,0,1,431.29,137Z" style="fill:#fff"></path><path d="M408.88,186.06a.5.5,0,0,1-.5-.5v-2a.5.5,0,0,1,1,0v2A.5.5,0,0,1,408.88,186.06Zm0-6a.5.5,0,0,1-.5-.5v-2a.5.5,0,0,1,1,0v2A.5.5,0,0,1,408.88,180.06Zm0-6a.5.5,0,0,1-.5-.5v-2a.5.5,0,0,1,1,0v2A.5.5,0,0,1,408.88,174.06Zm0-6a.5.5,0,0,1-.5-.5v-2a.5.5,0,0,1,1,0v2A.5.5,0,0,1,408.88,168.06Zm0-6a.5.5,0,0,1-.5-.5v-2a.5.5,0,0,1,1,0v2A.5.5,0,0,1,408.88,162.06Zm0-6a.5.5,0,0,1-.5-.5v-2a.5.5,0,0,1,1,0v2A.5.5,0,0,1,408.88,156.06Zm0-6a.5.5,0,0,1-.5-.5v-2a.5.5,0,0,1,1,0v2A.5.5,0,0,1,408.88,150.06Zm0-6a.5.5,0,0,1-.5-.5v-2a.5.5,0,0,1,1,0v2A.5.5,0,0,1,408.88,144.06Zm0-6a.5.5,0,0,1-.5-.5v-2a.5.5,0,0,1,1,0v2A.5.5,0,0,1,408.88,138.06Z" style="fill:#fff"></path><path d="M361.52,162a.5.5,0,0,1-.5-.5v-2a.5.5,0,0,1,.5-.5.5.5,0,0,1,.5.5v2A.5.5,0,0,1,361.52,162Zm0-6a.5.5,0,0,1-.5-.5v-2a.5.5,0,0,1,.5-.5.5.5,0,0,1,.5.5v2A.5.5,0,0,1,361.52,156Zm0-6a.5.5,0,0,1-.5-.5v-2a.5.5,0,0,1,.5-.5.5.5,0,0,1,.5.5v2A.5.5,0,0,1,361.52,150Zm0-6a.5.5,0,0,1-.5-.5v-2a.5.5,0,0,1,.5-.5.5.5,0,0,1,.5.5v2A.5.5,0,0,1,361.52,144Z" style="fill:#fff"></path><path d="M379.57,170.38a.51.51,0,0,1-.5-.5v-2a.5.5,0,0,1,.5-.5.5.5,0,0,1,.5.5v2A.5.5,0,0,1,379.57,170.38Zm0-6a.51.51,0,0,1-.5-.5v-2a.5.5,0,0,1,.5-.5.5.5,0,0,1,.5.5v2A.5.5,0,0,1,379.57,164.38Zm0-6a.51.51,0,0,1-.5-.5v-2a.5.5,0,0,1,.5-.5.5.5,0,0,1,.5.5v2A.5.5,0,0,1,379.57,158.38Zm0-6a.51.51,0,0,1-.5-.5v-2a.5.5,0,0,1,.5-.5.5.5,0,0,1,.5.5v2A.5.5,0,0,1,379.57,152.38Z" style="fill:#fff"></path><path d="M368,133.51c0,1.14-1,1.48-2.29.75L358.44,130a4.6,4.6,0,0,1-2.29-3.39c0-1.15,1-1.48,2.29-.75l7.26,4.23A4.57,4.57,0,0,1,368,133.51Z" style="fill:#DC00F9;opacity:0.30000000000000004"></path><path d="M385.89,146.79c0,1.15-1,1.48-2.29.75l-7.25-4.23a4.59,4.59,0,0,1-2.3-3.39c0-1.14,1-1.48,2.3-.75l7.25,4.23A4.57,4.57,0,0,1,385.89,146.79Z" style="fill:#DC00F9;opacity:0.30000000000000004"></path><path d="M414.8,130.5c0,1.14-1,1.48-2.29.75L405.25,127a4.6,4.6,0,0,1-2.29-3.4c0-1.14,1-1.47,2.29-.74l7.26,4.22A4.61,4.61,0,0,1,414.8,130.5Z" style="fill:#DC00F9;opacity:0.30000000000000004"></path><path d="M438.36,130c0,1.14-1,1.48-2.3.74l-7.25-4.22a4.59,4.59,0,0,1-2.3-3.4c0-1.14,1-1.47,2.3-.74l7.25,4.22A4.62,4.62,0,0,1,438.36,130Z" style="fill:#DC00F9;opacity:0.30000000000000004"></path></g></g><g id="freepik--Stage--inject-78"><g id="freepik--stage--inject-78"><path d="M394.31,293.36l-137.9,79.55a14.17,14.17,0,0,1-12.85,0L105.69,293.37c-1.78-1-2.67-2.35-2.67-3.71a3.8,3.8,0,0,1,1.41-2.79,6.29,6.29,0,0,1,1.26-.91l137.9-79.53a14.19,14.19,0,0,1,12.85,0l137.87,79.51C397.85,288,397.85,291.33,394.31,293.36Z" style="opacity:0.2"></path><path d="M250,336.28v26.8a13.1,13.1,0,0,1-6.4-1.51L105.69,282c-1.78-1-2.67-2.37-2.67-3.71V255.11a3.8,3.8,0,0,1,1.41-2.8l19.95,11.52Z" style="fill:#DC00F9"></path><path d="M250,336.28v26.8a13.1,13.1,0,0,1-6.4-1.51L105.69,282c-1.78-1-2.67-2.37-2.67-3.71V255.11a3.8,3.8,0,0,1,1.41-2.8l19.95,11.52Z" style="fill:#fff;opacity:0.5"></path><path d="M250,336.28v26.8a13.11,13.11,0,0,0,6.41-1.51L394.31,282c1.78-1,2.67-2.37,2.67-3.71V255.1a3.8,3.8,0,0,0-1.41-2.8l-19.95,11.52Z" style="fill:#DC00F9"></path><path d="M250,336.28v26.8a13.11,13.11,0,0,0,6.41-1.51L394.31,282c1.78-1,2.67-2.37,2.67-3.71V255.1a3.8,3.8,0,0,0-1.41-2.8l-19.95,11.52Z" style="fill:#fff;opacity:0.65"></path><path d="M394.31,258.8l-137.9,79.56a14.26,14.26,0,0,1-12.85,0L105.69,258.81c-1.78-1-2.67-2.34-2.67-3.7a3.8,3.8,0,0,1,1.41-2.8,6.29,6.29,0,0,1,1.26-.91l137.9-79.53a14.19,14.19,0,0,1,12.85,0l137.87,79.52C397.85,253.44,397.85,256.78,394.31,258.8Z" style="fill:#DC00F9"></path><path d="M394.31,258.8l-137.9,79.56a14.26,14.26,0,0,1-12.85,0L105.69,258.81c-1.78-1-2.67-2.34-2.67-3.7a3.8,3.8,0,0,1,1.41-2.8,6.29,6.29,0,0,1,1.26-.91l137.9-79.53a14.19,14.19,0,0,1,12.85,0l137.87,79.52C397.85,253.44,397.85,256.78,394.31,258.8Z" style="fill:#fff;opacity:0.8"></path><path d="M250,171.92a11.69,11.69,0,0,1,5.64,1.33l137.86,79.51c1.19.69,1.86,1.54,1.86,2.35s-.68,1.64-1.85,2.32L255.61,337a12.67,12.67,0,0,1-11.26,0L106.48,257.43c-1.19-.67-1.87-1.52-1.87-2.32a2.31,2.31,0,0,1,.9-1.63,4.9,4.9,0,0,1,1-.7l137.91-79.53a11.45,11.45,0,0,1,5.62-1.33m0-1.59a13,13,0,0,0-6.42,1.54L105.69,251.4a6,6,0,0,0-1.26.91,3.8,3.8,0,0,0-1.41,2.8c0,1.36.89,2.69,2.67,3.7l137.87,79.55a14.26,14.26,0,0,0,12.85,0l137.9-79.56c3.54-2,3.54-5.36,0-7.41L256.44,171.87a13.12,13.12,0,0,0-6.43-1.54Z" style="fill:#fff"></path><path d="M245.73,188l-112,64.62c-2.37,1.37-2.37,3.58,0,4.95l112,64.61a9.43,9.43,0,0,0,8.56,0l112.05-64.62c2.37-1.37,2.37-3.58,0-4.95L254.29,188A9.43,9.43,0,0,0,245.73,188Z" style="fill:#455a64"></path><path d="M366.31,252.63,254.29,188a8.77,8.77,0,0,0-4.28-1v4.35L365.57,258l.74-.43C368.68,256.21,368.68,254,366.31,252.63Z" style="fill:#37474f"></path><path d="M250,187a8.77,8.77,0,0,0-4.28,1l-112,64.62c-2.37,1.37-2.37,3.58,0,4.95l.74.43L250,191.35Z" style="fill:#263238"></path></g><g id="freepik--Light--inject-78"><g style="opacity:0.5"><path d="M257.74,305.84a13.77,13.77,0,0,1-7.87,1.85c-.05,0,0,0,0,0s0,0,0,0v15.55a9.79,9.79,0,0,0,5.28-1.57L365,258.27c2.05-1.13,3-2.13,3-3.5V242.2Z" style="fill:#DC00F9;opacity:0.30000000000000004"></path><path d="M257.74,291.93a13.62,13.62,0,0,1-7.87,1.85h0v15.55a9.79,9.79,0,0,0,5.28-1.57L365,244.36c2.05-1.13,3-2.12,3-3.49V228.3Z" style="fill:#DC00F9;opacity:0.276923"></path><path d="M257.74,278a13.77,13.77,0,0,1-7.87,1.85c-.05,0,0,0,0,0s0,0,0,0v15.55a9.79,9.79,0,0,0,5.28-1.57L365,230.46c2.05-1.13,3-2.13,3-3.5V214.39Z" style="fill:#DC00F9;opacity:0.253846"></path><path d="M257.74,264.12a13.62,13.62,0,0,1-7.87,1.85h0v15.55a9.86,9.86,0,0,0,5.28-1.56L365,216.55c2.05-1.13,3-2.12,3-3.49V200.49Z" style="fill:#DC00F9;opacity:0.230769"></path><path d="M257.74,250.22a13.77,13.77,0,0,1-7.87,1.85c-.05,0,0,0,0,0s0,0,0,0v15.55a9.79,9.79,0,0,0,5.28-1.57L365,202.65c2.05-1.13,3-2.12,3-3.5V186.58Z" style="fill:#DC00F9;opacity:0.207692"></path><path d="M257.74,236.32a13.69,13.69,0,0,1-7.87,1.84h0v15.55a9.86,9.86,0,0,0,5.28-1.56L365,188.74c2.05-1.12,3-2.12,3-3.49V172.68Z" style="fill:#DC00F9;opacity:0.184615"></path><path d="M257.74,222.41a13.69,13.69,0,0,1-7.87,1.85c-.05,0,0,0,0,0s0,0,0,0v15.55a9.79,9.79,0,0,0,5.28-1.57L365,174.84c2.05-1.13,3-2.12,3-3.49V158.77Z" style="fill:#DC00F9;opacity:0.161538"></path><path d="M257.74,208.51a13.69,13.69,0,0,1-7.87,1.84h0V225.9a9.86,9.86,0,0,0,5.28-1.56L365,160.93c2.05-1.12,3-2.12,3-3.49V144.87Z" style="fill:#DC00F9;opacity:0.138462"></path><path d="M257.74,194.6a13.62,13.62,0,0,1-7.87,1.85c-.05,0,0,0,0,0s0,0,0,0V212a9.79,9.79,0,0,0,5.28-1.57L365,147c2.05-1.13,3-2.12,3-3.49V131Z" style="fill:#DC00F9;opacity:0.115385"></path><path d="M257.74,180.7a13.69,13.69,0,0,1-7.87,1.84c-.05,0,0,0,0,0h0v15.55a9.86,9.86,0,0,0,5.28-1.56L365,133.12c2.05-1.12,3-2.12,3-3.49V117.06Z" style="fill:#DC00F9;opacity:0.092308"></path><path d="M257.74,166.79a13.62,13.62,0,0,1-7.87,1.85c-.05,0,0,0,0,0s0,0,0,0v15.55a9.79,9.79,0,0,0,5.28-1.57L365,119.22c2.05-1.13,3-2.12,3-3.49V103.16Z" style="fill:#DC00F9;opacity:0.069231"></path><path d="M257.74,152.89a13.77,13.77,0,0,1-7.87,1.85c-.05,0,0,0,0,0h0v15.56a9.87,9.87,0,0,0,5.28-1.57L365,105.32c2.05-1.13,3-2.13,3-3.5V89.25Z" style="fill:#DC00F9;opacity:0.046154"></path><path d="M257.74,139a13.62,13.62,0,0,1-7.87,1.85h0v15.55a9.79,9.79,0,0,0,5.28-1.57L365,91.41c2.05-1.13,3-2.12,3-3.49V75.35Z" style="fill:#DC00F9;opacity:0.023077"></path><path d="M257.74,125.08a13.77,13.77,0,0,1-7.87,1.85c-.05,0,0,0,0,0s0,0,0,0v15.55a9.79,9.79,0,0,0,5.28-1.57L365,77.51c2.05-1.13,3-2.13,3-3.5V61.44Z" style="fill:#DC00F9;opacity:0"></path></g><g style="opacity:0.7000000000000001"><path d="M242,305.84a13.79,13.79,0,0,0,7.88,1.85s-.05,0,0,0,0,0,0,0v15.55a9.76,9.76,0,0,1-5.28-1.57l-109.82-63.4c-2.05-1.13-3-2.13-3-3.5V242.2Z" style="fill:#DC00F9;opacity:0.5"></path><path d="M242,291.93a13.63,13.63,0,0,0,7.88,1.85h0v15.55a9.76,9.76,0,0,1-5.28-1.57l-109.82-63.4c-2.05-1.13-3-2.12-3-3.49V228.3Z" style="fill:#DC00F9;opacity:0.461538"></path><path d="M242,278a13.79,13.79,0,0,0,7.88,1.85s-.05,0,0,0,0,0,0,0v15.55a9.76,9.76,0,0,1-5.28-1.57l-109.82-63.4c-2.05-1.13-3-2.13-3-3.5V214.39Z" style="fill:#DC00F9;opacity:0.423077"></path><path d="M242,264.12a13.63,13.63,0,0,0,7.88,1.85h0v15.55a9.83,9.83,0,0,1-5.28-1.56L134.77,216.55c-2.05-1.13-3-2.12-3-3.49V200.49Z" style="fill:#DC00F9;opacity:0.384615"></path><path d="M242,250.22a13.79,13.79,0,0,0,7.88,1.85s-.05,0,0,0,0,0,0,0v15.55a9.76,9.76,0,0,1-5.28-1.57l-109.82-63.4c-2.05-1.13-3-2.12-3-3.5V186.58Z" style="fill:#DC00F9;opacity:0.34615399999999996"></path><path d="M242,236.32a13.7,13.7,0,0,0,7.88,1.84h0v15.55a9.83,9.83,0,0,1-5.28-1.56L134.77,188.74c-2.05-1.12-3-2.12-3-3.49V172.68Z" style="fill:#DC00F9;opacity:0.30769199999999997"></path><path d="M242,222.41a13.71,13.71,0,0,0,7.88,1.85s-.05,0,0,0,0,0,0,0v15.55a9.76,9.76,0,0,1-5.28-1.57l-109.82-63.4c-2.05-1.13-3-2.12-3-3.49V158.77Z" style="fill:#DC00F9;opacity:0.269231"></path><path d="M242,208.51a13.7,13.7,0,0,0,7.88,1.84h0V225.9a9.83,9.83,0,0,1-5.28-1.56L134.77,160.93c-2.05-1.12-3-2.12-3-3.49V144.87Z" style="fill:#DC00F9;opacity:0.230769"></path><path d="M242,194.6a13.63,13.63,0,0,0,7.88,1.85s-.05,0,0,0,0,0,0,0V212a9.76,9.76,0,0,1-5.28-1.57L134.77,147c-2.05-1.13-3-2.12-3-3.49V131Z" style="fill:#DC00F9;opacity:0.19230799999999998"></path><path d="M242,180.7a13.7,13.7,0,0,0,7.88,1.84s-.05,0,0,0h0v15.55a9.83,9.83,0,0,1-5.28-1.56L134.77,133.12c-2.05-1.12-3-2.12-3-3.49V117.06Z" style="fill:#DC00F9;opacity:0.15384599999999998"></path><path d="M242,166.79a13.63,13.63,0,0,0,7.88,1.85s-.05,0,0,0,0,0,0,0v15.55a9.76,9.76,0,0,1-5.28-1.57l-109.82-63.4c-2.05-1.13-3-2.12-3-3.49V103.16Z" style="fill:#DC00F9;opacity:0.115385"></path><path d="M242,152.89a13.79,13.79,0,0,0,7.88,1.85s-.05,0,0,0,0,0,0,0v15.56a9.85,9.85,0,0,1-5.28-1.57l-109.82-63.4c-2.05-1.13-3-2.13-3-3.5V89.25Z" style="fill:#DC00F9;opacity:0.07692299999999999"></path><path d="M242,139a13.63,13.63,0,0,0,7.88,1.85h0v15.55a9.76,9.76,0,0,1-5.28-1.57L134.77,91.41c-2.05-1.13-3-2.12-3-3.49V75.35Z" style="fill:#DC00F9;opacity:0.038461999999999996"></path><path d="M242,125.08a13.79,13.79,0,0,0,7.88,1.85s-.05,0,0,0,0,0,0,0v15.55a9.76,9.76,0,0,1-5.28-1.57L134.77,77.51c-2.05-1.13-3-2.13-3-3.5V61.44Z" style="fill:#DC00F9;opacity:0"></path></g></g></g><g id="freepik--Brain--inject-78"><g id="freepik--brain--inject-78"><path d="M329.81,196.23s3.34,3.33,1,9.49c-2.23,6-9.53,7-9.53,7s1,9.81-14.92,11a10,10,0,0,0,0-2.06s7.31-.29,7.42-11.64-8.4-13.1-8.4-13.1a10.41,10.41,0,0,0,1.32-9.12c-2.08-6.22-6.48-5.56-6.48-5.56s3.19-2.34,1.79-8.14c-1.3-5.39-5.35-6.09-5.35-6.09s3-5.36-2.47-12.6-11.09-6.12-11.09-6.12a16.31,16.31,0,0,0-3.88-9.7c-3.89-4.53-10-3.89-10-3.89A15.79,15.79,0,0,0,264,123.52c-5.82-5.5-11.66-5.25-11.66-5.25a9.32,9.32,0,0,0-3.93-8.11,10.71,10.71,0,0,0-10.54-1.51s-1-7.12-7.16-8.48c-8.05-1.76-12,3-12,3s-2.68-3.53-8.81-4.53A31.35,31.35,0,0,1,218,91.19c7.25-4.44,18.23-1.61,18.23-1.61a14.2,14.2,0,0,1,9.58-2.64A10.9,10.9,0,0,1,254,91.72s3.36-2.48,11.5-2,10.09,6.9,10.09,6.9a19.78,19.78,0,0,1,11.34,3.19c6,3.73,6,11.7,6,11.7s7.27-2,13.64,4.61,3.56,12.76,3.56,12.76a14.39,14.39,0,0,1,11.33,21.25,6.4,6.4,0,0,1,4.07,3.9c1.24,3.19,0,5.14,0,5.14s6.19,2.64,7.8,9.2-1.61,10.45-1.61,10.45a10.21,10.21,0,0,1,5.14,9.22C336.89,194.82,329.81,196.23,329.81,196.23Z" style="fill:#DC00F9"></path><path d="M329.81,196.23s3.34,3.33,1,9.49c-2.23,6-9.53,7-9.53,7s1,9.81-14.92,11a10,10,0,0,0,0-2.06s7.31-.29,7.42-11.64-8.4-13.1-8.4-13.1a10.41,10.41,0,0,0,1.32-9.12c-2.08-6.22-6.48-5.56-6.48-5.56s3.19-2.34,1.79-8.14c-1.3-5.39-5.35-6.09-5.35-6.09s3-5.36-2.47-12.6-11.09-6.12-11.09-6.12a16.31,16.31,0,0,0-3.88-9.7c-3.89-4.53-10-3.89-10-3.89A15.79,15.79,0,0,0,264,123.52c-5.82-5.5-11.66-5.25-11.66-5.25a9.32,9.32,0,0,0-3.93-8.11,10.71,10.71,0,0,0-10.54-1.51s-1-7.12-7.16-8.48c-8.05-1.76-12,3-12,3a11.05,11.05,0,0,0-2.67-2.27c-.17-.11-.32-.2-.51-.3a15.9,15.9,0,0,0-5.63-2A31.35,31.35,0,0,1,218,91.19c7.25-4.44,18.23-1.61,18.23-1.61a14.2,14.2,0,0,1,9.58-2.64A10.9,10.9,0,0,1,254,91.72s3.36-2.48,11.5-2,10.09,6.9,10.09,6.9a19.78,19.78,0,0,1,11.34,3.19c6,3.73,6,11.7,6,11.7s7.27-2,13.64,4.61,3.56,12.76,3.56,12.76a14.39,14.39,0,0,1,11.33,21.25,6.4,6.4,0,0,1,4.07,3.9c1.24,3.19,0,5.14,0,5.14s6.19,2.64,7.8,9.2-1.61,10.45-1.61,10.45a10.21,10.21,0,0,1,5.14,9.22C336.89,194.82,329.81,196.23,329.81,196.23Z" style="opacity:0.05"></path><path d="M308.07,195.91a12.17,12.17,0,0,0,.4-8.71c-1.19-3.55-3.19-5.38-5.06-6.24a11.11,11.11,0,0,0,.42-7.3,9.88,9.88,0,0,0-4.81-6.72c.61-2.52.81-7.17-3.35-12.67s-8.42-6.67-10.89-6.89a18.51,18.51,0,0,0-4.15-9,13.75,13.75,0,0,0-9.59-4.53,18.06,18.06,0,0,0-5.72-11.69,20.55,20.55,0,0,0-11.11-5.63,11.3,11.3,0,0,0-4.65-7.87,12.65,12.65,0,0,0-10.31-2.37c-.87-2.61-3-6.82-8.12-7.94-6.18-1.36-10.3.71-12.35,2.24a17.12,17.12,0,0,0-7.5-3.62,36.09,36.09,0,0,0-2.67,3.39c5.86.63,8.44,3.78,8.58,4a1.9,1.9,0,0,0,1.45.74,1.93,1.93,0,0,0,1.49-.65c.14-.16,3.45-3.86,10.19-2.37,4.78,1,5.68,6.66,5.71,6.89a1.91,1.91,0,0,0,2.67,1.45,8.79,8.79,0,0,1,8.61,1.32,7.45,7.45,0,0,1,3.19,6.37,1.9,1.9,0,0,0,.49,1.49,1.7,1.7,0,0,0,1.45.62c.19,0,5.18-.09,10.29,4.73a13.94,13.94,0,0,1,4.57,10.64,1.91,1.91,0,0,0,.54,1.52,1.93,1.93,0,0,0,1.53.55c.05,0,5.23-.46,8.39,3.22a14.61,14.61,0,0,1,3.42,8.47,1.9,1.9,0,0,0,.69,1.44,1.94,1.94,0,0,0,1.54.42c.19,0,4.63-.69,9.25,5.4s2.42,10.4,2.33,10.56a1.91,1.91,0,0,0-.05,1.71,1.94,1.94,0,0,0,1.36,1.07c.12,0,2.89.63,3.85,4.66,1.06,4.39-1,6.12-1.07,6.17a1.86,1.86,0,0,0-.62,2.2,1.92,1.92,0,0,0,2,1.2c.29,0,3-.16,4.44,4.27a8.49,8.49,0,0,1-1,7.4,1.9,1.9,0,0,0-.27,1.8,1.93,1.93,0,0,0,1.37,1.2c.29.06,7,1.66,6.92,11.22-.1,9.28-5.42,9.75-5.62,9.77a1.91,1.91,0,0,0-1.79,2.17,8.69,8.69,0,0,1,0,1.47,4.75,4.75,0,0,0,1.87.31c.67,0,1.28-.14,1.9-.22,0-.12,0-.26,0-.37,2.67-.92,7.26-3.85,7.36-13.09C315.75,201.85,311.53,197.63,308.07,195.91Z" style="opacity:0.2"></path><path d="M306.34,221.67s7.31-.29,7.43-11.64-8.41-13.09-8.41-13.09a10.46,10.46,0,0,0,1.31-9.14c-2.06-6.21-6.47-5.55-6.47-5.55s3.19-2.34,1.79-8.14c-1.3-5.4-5.35-6.08-5.35-6.08s3-5.38-2.48-12.62-11.09-6.12-11.09-6.12a16.36,16.36,0,0,0-3.87-9.7c-3.88-4.52-10-3.87-10-3.87a15.89,15.89,0,0,0-5.15-12.2c-5.82-5.5-11.65-5.25-11.65-5.25a9.35,9.35,0,0,0-3.94-8.11,10.69,10.69,0,0,0-10.53-1.51s-1-7.12-7.18-8.48c-8-1.77-12,3-12,3s-5.44-7.2-18.54-4c-11,2.67-11.78,10.89-11.78,10.89s-11.28-2.11-16.45,5.64-3.56,17.77-3.56,17.77-6.46,4.53-6.14,11.31a20.55,20.55,0,0,0,3.24,10.67s-6.47,11-1.94,20a21,21,0,0,0,12.6,11s0,9.69,4.52,14.54,12.6,4.52,12.6,4.52a17.42,17.42,0,0,0,8.73,10c6.78,3.23,13.89.64,13.89.64a17.48,17.48,0,0,0,8.08,5.5c5.17,1.61,11.63,0,11.63,0a8.33,8.33,0,0,0,6.79,6.78c6.14,1.29,9.37-2.58,9.37-2.58s1.94,4.2,6.46,4.52a9.06,9.06,0,0,0,7.11-2.58s2.59,8.07,13.25,8.4,13.28-4.28,13.28-4.28,5.14,3.64,10.31-.24A11.07,11.07,0,0,0,306.34,221.67Z" style="fill:#DC00F9"></path><path d="M306.34,221.67s7.31-.29,7.43-11.64-8.41-13.09-8.41-13.09a10.46,10.46,0,0,0,1.31-9.14c-2.06-6.21-6.47-5.55-6.47-5.55s3.19-2.34,1.79-8.14c-1.3-5.4-5.35-6.08-5.35-6.08s3-5.38-2.48-12.62-11.09-6.12-11.09-6.12a16.36,16.36,0,0,0-3.87-9.7c-3.88-4.52-10-3.87-10-3.87a15.89,15.89,0,0,0-5.15-12.2c-5.82-5.5-11.65-5.25-11.65-5.25a9.35,9.35,0,0,0-3.94-8.11,10.69,10.69,0,0,0-10.53-1.51s-1-7.12-7.18-8.48c-8-1.77-12,3-12,3s-5.44-7.2-18.54-4c-11,2.67-11.78,10.89-11.78,10.89s-11.28-2.11-16.45,5.64-3.56,17.77-3.56,17.77-6.46,4.53-6.14,11.31a20.55,20.55,0,0,0,3.24,10.67s-6.47,11-1.94,20a21,21,0,0,0,12.6,11s0,9.69,4.52,14.54,12.6,4.52,12.6,4.52a17.42,17.42,0,0,0,8.73,10c6.78,3.23,13.89.64,13.89.64a17.48,17.48,0,0,0,8.08,5.5c5.17,1.61,11.63,0,11.63,0a8.33,8.33,0,0,0,6.79,6.78c6.14,1.29,9.37-2.58,9.37-2.58s1.94,4.2,6.46,4.52a9.06,9.06,0,0,0,7.11-2.58s2.59,8.07,13.25,8.4,13.28-4.28,13.28-4.28,5.14,3.64,10.31-.24A11.07,11.07,0,0,0,306.34,221.67Z" style="fill:#fff;opacity:0.2"></path><g style="opacity:0.05"><path d="M221.16,129.43a32.18,32.18,0,0,0-4-6c-1.15-1.31-3-3.25-4.89-3-.56.06-.2,1,.2,1,1.75.31,3,1.8,3.94,3.17a39.52,39.52,0,0,1,2.76,4.65A32,32,0,0,1,223,142.91c.16,4-.82,8.09-4.65,10.07-4.49,2.32-10.29.85-14.52-1.31a11.84,11.84,0,0,1-6.73-9c-.07-.5-.85-.92-.83-.19a12.08,12.08,0,0,0,1.56,6.17,12.69,12.69,0,0,0,4.59,4.17c4.34,2.54,9.6,4,14.59,2.71C228.7,152.55,225.35,137.2,221.16,129.43Z"></path><path d="M208.49,135.63a10.8,10.8,0,0,0-1.61-4.58,14.68,14.68,0,0,0-3.19-3.7,11.55,11.55,0,0,0-4.32-2.51c-.69-.18-.64.79-.22,1.06a25.2,25.2,0,0,1,3.69,2.46,13.49,13.49,0,0,1,2.71,3.4,10.07,10.07,0,0,1,1.18,3.93,10.22,10.22,0,0,1-.07,2.21c-.1.7-.28,1.36-.39,2.06-.05.32.36,1,.72.64A6.37,6.37,0,0,0,208.49,135.63Z"></path><path d="M214.19,112.11a32.09,32.09,0,0,0-10.91-1,19.85,19.85,0,0,0-9.67,3.39c-5.09,3.37-8.91,8.38-9.87,14.49-.53,3.37-.82,7.59,2.16,10,.36.28,1,.12.81-.43a14.07,14.07,0,0,1-1.16-6,26.91,26.91,0,0,1,.8-5.2,18.88,18.88,0,0,1,5.66-8.94A20.23,20.23,0,0,1,202.16,113a26.47,26.47,0,0,1,6.1-.15,33.71,33.71,0,0,0,6.1.29C214.91,113.11,214.54,112.21,214.19,112.11Z"></path><path d="M191.47,149.78c-3.06-4.91-8.86-8.83-14.75-8.71-4.62.09-11.74,2.67-11.08,8.44a10.35,10.35,0,0,0,4.5,7.11,3.76,3.76,0,0,0,3.71.21c1.38-.79,1.52-2.53,1.89-3.9.06-.22-.19-.71-.44-.44-1.14,1.22-2.25,4.22-4.36,2.73a9.13,9.13,0,0,1-3.3-5.24c-.83-4.45,4.31-6.6,7.85-7.1,4.93-.71,9.46,1.89,12.67,5.46,2.08,2.32,4.82,7.13,1.44,9.53a5.14,5.14,0,0,1-3.84.9c-1.56-.3-1.71-1.5-2-2.86-.15-.67-1.36-.95-1.59-.21a3.58,3.58,0,0,0,1.89,4.23,6.64,6.64,0,0,0,5.05.24,5.88,5.88,0,0,0,3.78-3.27C193.77,154.59,192.7,151.76,191.47,149.78Z"></path><path d="M236.91,205.69c-2.58-5-7.4-8.39-12.36-10.69-.83-.38-1.66-.74-2.5-1.07a14.4,14.4,0,0,0,2.53-3,25.62,25.62,0,0,0,3.29-7.12,8.72,8.72,0,0,0-.94-7.31,7.82,7.82,0,0,0-2.81-2.58c-1.13-.6-3.05-1.26-4.3-.69-.5.23.06,1,.39,1.05,1.29.31,2.42.32,3.55,1.13a5.75,5.75,0,0,1,2.05,2.82,8.85,8.85,0,0,1-.24,5.79,25.28,25.28,0,0,1-2.83,5.82,12.81,12.81,0,0,1-2,2.4,6.15,6.15,0,0,1-1.19.79c-4.26-1.49-8.66-2.6-13-4-6.25-2-12-5.07-16.38-10a21.47,21.47,0,0,1-5.47-10.31,22.4,22.4,0,0,1-.3-4.91c.06-1.34.17-3.11,1.16-4.13.47-.49-.43-1.48-1-1.12-2.07,1.34-2,4.67-2,6.86a20.28,20.28,0,0,0,2.48,9.91,33,33,0,0,0,14.62,13.41c10.38,5,23.59,5.07,32,13.79a16,16,0,0,1,4.47,8.12,12.88,12.88,0,0,1,0,5.1c-.35,1.59-1.36,2.73-1.87,4.21-.14.39.42,1.09.84.88,2.45-1.17,3.31-4.49,3.49-7A15.7,15.7,0,0,0,236.91,205.69Z"></path><path d="M223.85,206.28c-2.84-2.05-6.31-2.56-9.64-3.32s-6.67-1.44-9.94-2.43a42.85,42.85,0,0,1-4.79-1.75c-2.24-1-4.19-2.43-6.39-3.42a.48.48,0,0,0-.67.63c.66,1.41,2.35,2.45,3.64,3.24a25.5,25.5,0,0,0,4.06,2,63.28,63.28,0,0,0,9.16,2.69c3.74.86,7.8,1.29,11.4,2.62a12.09,12.09,0,0,1,3.09,1.7c1.14.84,2.81,2.15,2.93,3.66,0,.49.88.94,1,.25C228,209.63,225.74,207.65,223.85,206.28Z"></path><path d="M178.47,178.62a19.64,19.64,0,0,0-3.85-5c-2-2.19-3.47-4.49-3.46-7.6a26.51,26.51,0,0,1,.63-4.86c.31-1.65.84-3.55.19-5.16-.11-.28-.51-.51-.7-.18a7.71,7.71,0,0,0-.58,2.43c-.13.76-.27,1.5-.42,2.25a35.56,35.56,0,0,0-.72,4.47,11,11,0,0,0,2.27,7.58c1.27,1.66,2.84,3.05,4.09,4.73a6.86,6.86,0,0,1,1.27,2.53c.36,1.56-.17,3-.52,4.52,0,.23.19.92.52.62A5.47,5.47,0,0,0,178.47,178.62Z"></path><path d="M294.67,169.32a20,20,0,0,0-4.32,2,14.06,14.06,0,0,1-5,1.37c-3.1.24-6.11-.77-9.2-.75a9.49,9.49,0,0,0-7.17,3.17,11.94,11.94,0,0,0-1.78,2.45c-.62-.69-1.27-1.37-1.95-2a25.73,25.73,0,0,0-8.84-5.4,55.06,55.06,0,0,0-11.31-2.35c-3.46-.46-6.81-.9-10-2.49-2.62-1.32-5.67-3.17-6.46-6.21-.14-.51-1-.67-.9,0,.22,2.62,2.18,4.6,4.15,6.14a19.43,19.43,0,0,0,7.36,3.55c7,1.65,14.46,1.46,20.67,5.53a23,23,0,0,1,10.35,15.22c.93,5.27,1.34,11.85-2.82,15.89a44.58,44.58,0,0,1-9.84,6.93c-.83.45-1.74,1-2.62,1.55a23.74,23.74,0,0,0,.95-4.82,25.07,25.07,0,0,0-.84-9.94,22.59,22.59,0,0,0-4.73-8.21c-2.52-2.82-5.66-4.68-8.68-6.9a21,21,0,0,1-4.73-4.59c-1.5-2-2.75-4.3-4.08-6.45-.26-.42-.56.13-.42.44,1.52,3.38,3,6.78,5.55,9.54s5.81,4.55,8.55,7A22.35,22.35,0,0,1,254,206.64a21.15,21.15,0,0,1-.7,6c-.36,1.33-.91,2.6-1.31,3.91a6.1,6.1,0,0,0-1.36,2.88c-.08.5.78,1.27,1.19.76a22.62,22.62,0,0,1,3.52-3.73,26.83,26.83,0,0,1,4-2.44,46.29,46.29,0,0,0,9-6.18,13.53,13.53,0,0,0,4.52-7.16,25.39,25.39,0,0,0,.35-8.65,27.64,27.64,0,0,0-2-8.46,23.11,23.11,0,0,0-2.22-3.78,8.92,8.92,0,0,1,.62-1.62,10.4,10.4,0,0,1,2.27-2.59c2.09-1.74,4.85-1.57,7.39-1.23,2.92.4,5.82.8,8.72,0a17.84,17.84,0,0,0,4.1-1.67,10.66,10.66,0,0,0,3.27-2.39C295.61,169.93,295.12,169.22,294.67,169.32Z"></path><path d="M285.51,158.37c-1.71-4.05-6.16-5.76-10-7.13a56.14,56.14,0,0,1-12.38-5.67,20.86,20.86,0,0,1-4.81-4.27,18.05,18.05,0,0,1-3.5-9.23c-.07-.54-1.31-1.1-1.45-.35-1.55,8.33,5.32,14.32,12,17.74,3.59,1.84,7.4,3,11.15,4.4,3.05,1.17,7.8,3.52,7.13,7.58-.32,2-2.14,2.59-3.85,3a28,28,0,0,1-7,.58,66.61,66.61,0,0,1-14.36-2.32,34.12,34.12,0,0,1-20.83-15.48,32.55,32.55,0,0,1-4.42-14.64,35.29,35.29,0,0,1,.4-7.68c.45-3,1-6.26,2.75-8.83.11-.17,0-.68-.28-.46a11.55,11.55,0,0,0-2.88,5.81,52.9,52.9,0,0,0-1.31,6.84,32.12,32.12,0,0,0,1.8,15.2,35.67,35.67,0,0,0,18.75,19.31,58.49,58.49,0,0,0,13.8,3.56c5,.8,10.28,1.15,15.2-.21a6.11,6.11,0,0,0,4.17-3A5.76,5.76,0,0,0,285.51,158.37Z"></path><path d="M269,157.75c-1.78-.61-3.72-.8-5.52-1.39a39.28,39.28,0,0,1-5.37-2.09,24.43,24.43,0,0,1-8.08-6.55A24,24,0,0,1,245,137.47c-.73-4,.37-7.84.59-11.8,0-.33-.56-1.14-.8-.55a24.41,24.41,0,0,0-1.68,13.63,24.66,24.66,0,0,0,5.4,10.52,23.37,23.37,0,0,0,9,6.84,36,36,0,0,0,6,1.81c1.68.36,4,1.07,5.69.58C269.47,158.41,269.31,157.84,269,157.75Z"></path><path d="M299.08,190.6c-3.81-3.56-10.69-4.62-11.9-10.51-.08-.36-.77-.75-.83-.18-.43,4.91,5.4,8,8.94,10.15a11,11,0,0,1,4.81,5.43c1.16,2.85.75,5.52-.23,8.33-.11.34.28.88.63.64C305.26,201.17,302.44,193.74,299.08,190.6Z"></path><path d="M307.8,212c-2.05,1.83-4.08,3.23-6.9,3.35a13.55,13.55,0,0,1-6.88-1.66,7.44,7.44,0,0,1-4.3-5.69,12,12,0,0,1,.26-4.47,25.11,25.11,0,0,0,.91-4.35l.2.15a12,12,0,0,1,2.79,3.94c.12.21.62.52.8.18.86-1.61-.39-3.34-1.53-4.46a20.56,20.56,0,0,0-4.1-3,42.86,42.86,0,0,1-4.81-3.16,20.1,20.1,0,0,1-2.16-2c-1-1.05-1.73-2.25-2.65-3.33-.17-.2-.39,0-.38.22.11,1.91,1.76,3.79,3.05,5.07a27.19,27.19,0,0,0,4.93,3.73c.79.48,1.57,1,2.34,1.49a.74.74,0,0,0-.32.48c-.29,1.48-.85,2.9-1.23,4.35a13.64,13.64,0,0,0-.45,4.22,8.87,8.87,0,0,0,2.51,6.17,15.64,15.64,0,0,0,12.76,3.82,9.65,9.65,0,0,0,3.4-1.23,4.93,4.93,0,0,0,2.53-3.26C308.66,212.22,308.16,211.64,307.8,212Z"></path><path d="M292.68,227.83a6.79,6.79,0,0,0-.59-2,19.16,19.16,0,0,0-2.27-3.82,10.58,10.58,0,0,0-3.53-2.84,12.78,12.78,0,0,0-2.13-.89l-.43-.14a6.68,6.68,0,0,0,.45-2,19.54,19.54,0,0,0-.8-6.4c-.57-2.05-1.49-4.17-3.54-5.11-.82-.38-.86.8-.29,1.16.88.55,1.33,2.24,1.63,3.16a19.4,19.4,0,0,1,.8,3.67c.22,1.82.39,3.79-.44,5.43a.31.31,0,0,0-.14.26,5.35,5.35,0,0,1-.34.54c-1.64,2.1-4.37,3-6.68,4.16s-4.86,2.5-5.21,5.24c-.06.43.61,1.05,1,.6a16,16,0,0,1,5.78-4.46,23.49,23.49,0,0,0,5.86-3.35,7.77,7.77,0,0,0,1.2-1.39l.16,0,.85.26a12.5,12.5,0,0,1,1.65.69,8.54,8.54,0,0,1,2.68,2.13A20.75,20.75,0,0,1,289.9,225a15.61,15.61,0,0,1,.92,1.71,13.64,13.64,0,0,1,.68,1.61,4,4,0,0,0,.36.94c.08.11.24.3.4.22C292.83,229.21,292.73,228.36,292.68,227.83Z"></path><path d="M276,207.72c0-.32-.48-.69-.58-.18a9.07,9.07,0,0,1-2.28,4.76,24,24,0,0,1-4,3.19,22.23,22.23,0,0,0-3.9,3.2,7.69,7.69,0,0,0-1.46,2.16,4.09,4.09,0,0,0-.18,2.63c0,.18.33.68.57.41a22.22,22.22,0,0,0,1.8-2.8,10.2,10.2,0,0,1,1.6-1.93,34.78,34.78,0,0,1,3.74-2.85,13.56,13.56,0,0,0,3.66-3.46A7.56,7.56,0,0,0,276,207.72Z"></path><path d="M224.65,166.75a13.81,13.81,0,0,0-4.37-1.26,36.85,36.85,0,0,0-13.15.7A45.74,45.74,0,0,0,197,169.43a24.82,24.82,0,0,0-4.77,2.86c-1,.77-3,2.2-2.43,3.65.09.23.36.55.64.47,1.45-.42,2.57-2,3.78-2.86a22.93,22.93,0,0,1,4.08-2.34,44.41,44.41,0,0,1,8.86-2.91,42.21,42.21,0,0,1,11.41-1.22,26,26,0,0,1,3.94.46,8.84,8.84,0,0,1,3.5,1.66.27.27,0,0,0,.4-.07C226.87,168,225.46,167.18,224.65,166.75Z"></path><path d="M203.67,157.65a5.15,5.15,0,0,0-1.53,1.22c-.56.54-1.13,1-1.72,1.54a18.89,18.89,0,0,1-3.94,2.5,16.76,16.76,0,0,1-4.21,1.32,20.26,20.26,0,0,1-2.06.22,6.66,6.66,0,0,0-2,.16c-.5.18-.22.86.11,1.06,1.3.79,3.38.48,4.8.24a16.63,16.63,0,0,0,4.6-1.54,19.34,19.34,0,0,0,3.94-2.63,15.34,15.34,0,0,0,1.7-1.72,2.74,2.74,0,0,0,.9-1.79C204.31,157.93,204,157.51,203.67,157.65Z"></path></g><g style="opacity:0.05"><path d="M277.29,99.49c-.17-.19-.37,0-.4.18-.19,1,0,2-.13,3a11.56,11.56,0,0,1-1.18,3.85c-1.18,2.33-3.18,4.7-5.76,5.5-6.35,2-11.79-2.17-16.19-6.22a24.22,24.22,0,0,0-.89-2.38,21.39,21.39,0,0,0-3.61-5.49,34.94,34.94,0,0,0-4.43-4.34A13.39,13.39,0,0,0,242,91.81a4.26,4.26,0,0,0-2.59-.61c-.51.11-.26.88.14,1a10.3,10.3,0,0,1,4.25,2.7,43.69,43.69,0,0,1,3.74,4,18.93,18.93,0,0,1,3.24,5.08,18,18,0,0,1,1,3.45c.1.53.19,1.06.3,1.58a9.34,9.34,0,0,0,.76,1.89c.11.25.49.53.67.19a5,5,0,0,0,.54-2.41,17.12,17.12,0,0,0,5.46,4.15A15.45,15.45,0,0,0,270.16,114a11.33,11.33,0,0,0,6.61-5.31C278.36,106,279.54,102.1,277.29,99.49Z"></path><path d="M291.15,120.81c-2.24-1.69-5.11-3.25-8-3.17-.57,0-.17,1.06.28,1.09,2,.17,4.23,1.49,5.85,2.67,1.35,1,3.45,2.68,3.4,4.56-.05,2.63-4.56,3.06-6.4,3a18.13,18.13,0,0,1-9.8-3.68,19.87,19.87,0,0,1-4-3.58c-1.34-1.62-1.91-3.57-2.86-5.42-.15-.28-.71-.54-.76,0a10.36,10.36,0,0,0,2,6.36,17.73,17.73,0,0,0,4.21,4.3,19.92,19.92,0,0,0,11.28,4.14c2.79.06,7.81-.92,8.46-4.28C295.25,124.31,292.9,122.14,291.15,120.81Z"></path><path d="M319.4,148.63c-1.19-.34-2.65.12-3.85.3-1.43.22-2.86.46-4.3.61a26.14,26.14,0,0,1-8.51-.37,20.8,20.8,0,0,1-6.51-2.66,27.64,27.64,0,0,1-6-5.6c-.31-.35-.75-.2-.73.27a7.25,7.25,0,0,0,1.57,3.49,12.76,12.76,0,0,0,2.69,2.75,21.28,21.28,0,0,0,7.31,3.45,26.19,26.19,0,0,0,9.16.76,48.61,48.61,0,0,0,5.1-.76c.87-.16,1.72-.37,2.58-.56.58-.13,1.54-.17,1.89-.73A.66.66,0,0,0,319.4,148.63Z"></path><path d="M310.53,134.1c-.61,0-.12,1,.23,1.06,1.59.44,2.07,3.83,1.37,5.17-1.05,2-4.3,2.08-6.23,2.1a17.84,17.84,0,0,1-8.91-2.31c-2.57-1.47-4.63-3.6-7.1-5.2-.42-.26-.52.37-.31.63,2.32,2.75,4.73,5.53,8,7.1a19.22,19.22,0,0,0,11,1.57c2.47-.37,5.47-1.46,5.72-4.35C314.57,137.58,313.26,134,310.53,134.1Z"></path><path d="M322.58,158.15a2.59,2.59,0,0,0-.38-.17,5.66,5.66,0,0,0-.59-.15,7.42,7.42,0,0,0-1.14-.15,11.64,11.64,0,0,0-2.5.16,22,22,0,0,0-5.38,1.62,10,10,0,0,0-3.8,2.75,9.6,9.6,0,0,0-1.68,5.39,6.76,6.76,0,0,0,.77,3.76,6,6,0,0,0,5,3,.92.92,0,0,0,.49-.13.62.62,0,0,0,.1-.73,1.92,1.92,0,0,0-.54-.56,11.17,11.17,0,0,1-2.45-2.35,6.27,6.27,0,0,1,2-8.72,19.71,19.71,0,0,1,5-1.94,9.32,9.32,0,0,1,5.74,0,.37.37,0,0,0,.4-.4C323.71,159.18,322.85,158.28,322.58,158.15Z"></path><path d="M327.25,181.05c-2-4.3-6.84-6.94-11.37-7.7-2.47-.42-6.78-.6-8.39,1.74a.73.73,0,0,0-.17.44.57.57,0,0,0,.45.49,1.56,1.56,0,0,0,.71,0c2-.37,3.77-1,5.86-.84a14,14,0,0,1,10,5.5c1.68,2.49,2.12,6.61.22,9.13-1.63,2.15-4.6,2.16-7,1.51a7.38,7.38,0,0,1-3.65-1.92c-.85-1-.26-2.09.47-3,.38-.46-.31-1.48-.86-1.12-1.64,1.06-3,2.8-1.88,4.76a7.1,7.1,0,0,0,3.73,2.73c3.26,1.26,7.25,1.56,10.14-.78C328.6,189.51,328.82,184.43,327.25,181.05Z"></path><path d="M322.72,202a11.56,11.56,0,0,0-3.09-4,5.92,5.92,0,0,0-4.56-1.51c-.55.1-.21,1,.23,1,2.83.21,4.72,2.94,5.68,5.34a12.11,12.11,0,0,1,.86,3.75,10.44,10.44,0,0,1-.06,1.85c0,.22-.08.44-.11.66a4.06,4.06,0,0,0-.11,1.29c.08.35.36.73.76.58.67-.27,1.15-1.31,1.36-1.94a6.89,6.89,0,0,0,.27-2.43A11.73,11.73,0,0,0,322.72,202Z"></path></g><g style="opacity:0.2"><path d="M227.24,125.3c-.7-.12-1.39.32-1.78,1.59-.9,2.86,0,7.6.29,10.52a79.42,79.42,0,0,0,2.1,12.44c.84,3.31,1.94,6.66,4.14,9.27a19.76,19.76,0,0,0,7.94,5.26c8.11,3.25,17.24,3.74,25,7.81,1,.5,2.17,1,3,.35a1.77,1.77,0,0,0,.21-2.22,4.34,4.34,0,0,0-1.88-1.49c-3.09-1.51-6.53-2.08-9.85-3A40.07,40.07,0,0,1,241,158.2,28.15,28.15,0,0,1,231.64,144c-.93-3.55-1-7.24-1.53-10.86-.27-1.91-.14-4.06-.91-5.86A3.09,3.09,0,0,0,227.24,125.3Z" style="fill:#fff"></path><path d="M210.26,139.56a7.2,7.2,0,0,1-6.31,6.25,2.48,2.48,0,0,0-1.71.49c-.77.84.25,2.11,1.19,2.75,3.12,2.13,6.87,4.12,10.51,3.13,3.81-1,6.14-5.15,6.31-9.1.15-3.31-2-20.7-8.76-15.41C208.32,130.16,210.65,136.23,210.26,139.56Z" style="fill:#fff"></path><path d="M203.12,139.32c2.55-8.88-14-18.81-14.59-7.31a8.1,8.1,0,0,0,.72,4.42c2.52,4.47,6.79-2.48,10.31,1.86a10.16,10.16,0,0,0,1.32,1.65,1.44,1.44,0,0,0,1.92.06A1.71,1.71,0,0,0,203.12,139.32Z" style="fill:#fff"></path><path d="M242.47,178.51a7.79,7.79,0,0,0,2,1.81c6.93,5,12.81,12.3,13.52,20.81.15,1.83.32,4.1,2,4.8a3.66,3.66,0,0,0,3.05-.44c3.24-1.78,5.07-5.53,5.29-9.22a22.14,22.14,0,0,0-2.53-10.68C263.67,181,260,177,255,175.65,252.9,175.11,239.09,173.44,242.47,178.51Z" style="fill:#fff"></path><path d="M199.29,176.83c2.08.3,4.14,1.7,6.32,1.93,2.69.29,5.84,0,8.1-1.59a24.68,24.68,0,0,1,2.28-1.83,4.49,4.49,0,0,1,5.24,1.08,7.44,7.44,0,0,1,1.75,5.35,7.71,7.71,0,0,1-3,6.19c-2.6,1.78-6.11,1.12-9.12.22-4.78-1.43-9.52-3.35-13.29-6.61a5.21,5.21,0,0,1-1.54-1.89,2.12,2.12,0,0,1,.35-2.3,2.83,2.83,0,0,1,1.78-.6A5.79,5.79,0,0,1,199.29,176.83Z" style="fill:#fff"></path><path d="M242.53,151c4.14,4.6,9.83,7.53,15.61,9.74,5.5,2.11,14.14,5.18,20,2.71,1.8-.76,3.31-2.59,3.05-4.52s-1.92-3.14-3.56-4c-5.81-3.13-12.51-4.38-18.4-7.34-1.13-.57-2.67-1.08-3.53-.15s-.31,2.32.57,3.11a21,21,0,0,0,4.69,3.17c2.21,1,6.6,1.36,8.33,3s.24,2.82-1.84,2.51c-5.83-.88-11.66-2.5-16.58-5.75a22.72,22.72,0,0,1-9-11,31.78,31.78,0,0,1-1.45-5.1c-.18-1,.2-3.81-.71-4.52-2.87-2.26-2.57,6.6-2.38,7.72A21.08,21.08,0,0,0,242.53,151Z" style="fill:#fff"></path><path d="M232.43,106.62a8.36,8.36,0,0,0-7.34-3.29,14.06,14.06,0,0,0-7.66,3.15,18.09,18.09,0,0,0-14.25-3.93c-3.76.54-7.66,2.23-10,5.41-.43.6-.76,1.53-.18,2a1.53,1.53,0,0,0,.87.25c3.91.18,7.83-1.6,11.9-1.52a23.65,23.65,0,0,1,12.1,3.24c2.34,1.45,4.39,3.43,7,4.39A6.44,6.44,0,0,0,232.43,106.62Z" style="fill:#fff"></path><path d="M175.6,117.26a18.63,18.63,0,0,0-4.13,11.33c-.07,4.48,1.83,8.18,6.82,8.21a3,3,0,0,0,1.4-.26c1.36-.72,1.26-2.65,1.12-4.18a21.91,21.91,0,0,1,3-13.11c.66-1.11,1.46-2.36,1.09-3.6a2.88,2.88,0,0,0-2.4-1.82C179.68,113.41,177.3,115.16,175.6,117.26Z" style="fill:#fff"></path><path d="M249.84,212.83a29.51,29.51,0,0,0-.65-10.41,21.45,21.45,0,0,0-8.26-12.53c-2.13-1.52-6.36-4-8.92-2.2s-1.84,5.28-.3,7.38,3.87,3.55,5.58,5.55a16.67,16.67,0,0,1,3.6,9.13c.31,2.94-.69,5.45-.59,8.23a3.07,3.07,0,0,0,1.22,2.49,3.11,3.11,0,0,0,1.76.45,6.26,6.26,0,0,0,5-3.33A13.19,13.19,0,0,0,249.84,212.83Z" style="fill:#fff"></path><path d="M201.61,197.08l14.09,4.68a36,36,0,0,1,7.73,3.25,12.07,12.07,0,0,1,5.32,6.28c.42,1.29.73,2.9,2,3.35a2.39,2.39,0,0,0,2.82-1.73,5.4,5.4,0,0,0-.47-3.58c-2.45-5.88-8.11-9.84-14-12.3s-12.18-3.77-18.06-6.23a49.79,49.79,0,0,1-15.77-10.53c-2.11-2.09-4.42-2.47-4.2,1.14C181.69,191,194.16,194.61,201.61,197.08Z" style="fill:#fff"></path><path d="M284.18,182.06c-1.51-1.94-3.5-.47-3.58,2.24s1.95,5.22,4.22,6.83,4.91,2.71,7,4.53a17,17,0,0,1,2.86,3c1,1.48,1.57,6.22,4.3,3.56,1.95-1.89.93-6.28-.38-8.14-1.62-2.29-4.14-3.73-6.58-5.11-2.59-1.47-6-3.37-7.39-6.09A6.47,6.47,0,0,0,284.18,182.06Z" style="fill:#fff"></path><path d="M293,216.79a11.45,11.45,0,0,1-6.63-6.21c-.18-.45-.52-1-1-.89s-.43.71-.36,1.14c.26,1.65.29,3.46,1.13,4.92a15.82,15.82,0,0,0,3.57,4,9.89,9.89,0,0,1,2.75,3.32c.6,1.36.51,2.91,1.39,4.18a4.19,4.19,0,0,0,1.86,1.46,5.5,5.5,0,0,0,7-3.06C305.13,219.23,297.63,218.53,293,216.79Z" style="fill:#fff"></path><path d="M177.06,144.55a7.84,7.84,0,0,0-3,.47,3.24,3.24,0,0,0-2,2.15,3.55,3.55,0,0,0,2,3.58,18.34,18.34,0,0,0,4.21,1.29,16,16,0,0,1,6.24,3.28c.79.67,1.78,1.48,2.74,1.07a2.27,2.27,0,0,0,1.06-2.09,7.91,7.91,0,0,0-1-4.36C185.18,146.14,181.18,144.53,177.06,144.55Z" style="fill:#fff"></path></g><path d="M251.2,98.13c2.22,3,4.09,6.28,6.89,8.72s6.92,3.85,10.28,2.26a7.67,7.67,0,0,0,4.09-5.61c.53-3.18-1-7.65-3.7-9.47a10.48,10.48,0,0,0-11.86.4,1.76,1.76,0,0,1-.8.44,1.69,1.69,0,0,1-1-.35c-1.78-1.1-5.78-4.79-8-4C244,91.54,250.37,97,251.2,98.13Z" style="fill:#DC00F9"></path><path d="M278.84,112.59a1.07,1.07,0,0,0-.09.85,1,1,0,0,0,.73.42c1.92.46,3.88.71,5.79,1.23a21.28,21.28,0,0,1,9.56,5.64,10.31,10.31,0,0,1,3.29,6.34c.14,2.43-1.41,5.06-3.8,5.48-.38,1.22.78,2.34,1.85,3a32.11,32.11,0,0,0,5.43,2.81c2.1.84,4.93,1.26,6.24-.58,1-1.37.48-3.37-.66-4.6a11.09,11.09,0,0,0-4.33-2.46c2.91-3.14,2.81-8.39.28-11.84s-7-5.12-11.31-4.86a4.12,4.12,0,0,1-2.49-.31c-1.57-1-.82-3.41-.91-4.94-.17-2.74-2.23-6.89-5.5-4.74C280.34,105.76,279.93,110,278.84,112.59Z" style="fill:#DC00F9"></path><path d="M277,119.35a2.24,2.24,0,0,0-2.11.78c-.48.85.23,1.88,1,2.53a15.13,15.13,0,0,0,3.33,2.28,15.4,15.4,0,0,0,7.83,1.62,2.48,2.48,0,0,0,1-.22c2.44-1.33-.44-5.37-2.09-6C283.42,119.31,279.71,119.4,277,119.35Z" style="fill:#DC00F9"></path><path d="M299.25,152.81a1.84,1.84,0,0,0-1.5.25,1.29,1.29,0,0,0-.11,1.56c.63,1.1,1.65,2,2.32,3.14a9,9,0,0,1,1.3,4.58c0,1.29-.26,2.67.38,3.79.35.6.93,1.05,1.24,1.66.19.37.28.79.47,1.16a1.18,1.18,0,0,0,.95.71c.66,0,1-.76,1.18-1.4.61-2.32.56-5,1.6-7.16,1.17-2.45,3.36-3.15,5.66-4,2.66-1.05,5.53-1.22,8.29-1.89a3.34,3.34,0,0,0,1.07-.43,1.14,1.14,0,0,0,.51-1c-.16-1.33-2.83-1-3.66-.9A67.74,67.74,0,0,1,299.25,152.81Z" style="fill:#DC00F9"></path><path d="M312.79,169.6c0-3.78,5.21-6.43,8.47-6.45a12.88,12.88,0,0,1,7,2.29c2.62,1.72,3.59,6,2.91,8.92a4.57,4.57,0,0,1-1.27,2.39,2.34,2.34,0,0,1-2.54.46,4.09,4.09,0,0,1-1.27-1.25,13.55,13.55,0,0,0-10-5C314.8,170.89,313.18,170.8,312.79,169.6Z" style="fill:#DC00F9"></path><path d="M319,178.5a12.42,12.42,0,0,0-6.09-.86,3.89,3.89,0,0,0-2.2.81,1.66,1.66,0,0,0-.38,2.14,2.48,2.48,0,0,0,.91.68,38.85,38.85,0,0,1,4.83,3.1,3.86,3.86,0,0,1,1.37,1.5,12.5,12.5,0,0,0,.56,1.95,3.1,3.1,0,0,0,2.34,1.07,3.35,3.35,0,0,0,1.78-.08,2.71,2.71,0,0,0,1.29-1.95,7.22,7.22,0,0,0-7.09-8.84" style="fill:#DC00F9"></path><path d="M274.6,130.58a1.11,1.11,0,0,0-1,.14.74.74,0,0,0,0,.93,2.24,2.24,0,0,0,.84.57,35,35,0,0,1,6.66,3.59,9.63,9.63,0,0,1,3.95,6.24c.07.63.11,1.37.64,1.71a1.27,1.27,0,0,0,1.65-.49,3.67,3.67,0,0,0,.49-1.82c.26-2.91,1-7.39-2.43-8.73a23.26,23.26,0,0,0-3.92-.66C279.2,131.59,276.92,131,274.6,130.58Z" style="fill:#DC00F9"></path><path d="M219.58,93.81c-.81.52-1.71,1.22-1.68,2.18a2,2,0,0,0,1.67,1.66,6.55,6.55,0,0,0,2.52-.22c5.61-1.18,12.12-.66,16.08,3.49a13.66,13.66,0,0,0,2.29,2.27c2.48,1.6,5.75,1.32,8.48,2a2.69,2.69,0,0,0-.4-1.62C243.45,93.81,229.4,87.54,219.58,93.81Z" style="fill:#DC00F9"></path><path d="M322,195.78c-.61.11-1.32.38-1.46,1s.32,1.08.72,1.49l1.86,1.87a7.88,7.88,0,0,1,1.19,1.39c.81,1.32.8,3,1.12,4.48.1.46.34,1,.81,1.05a1,1,0,0,0,.7-.33c1.48-1.32,1.63-3.54,1.62-5.53C328.6,196.88,326.24,195,322,195.78Z" style="fill:#DC00F9"></path><path d="M229.54,159.94a2.07,2.07,0,1,1-2.07-2.06A2.07,2.07,0,0,1,229.54,159.94Z" style="fill:#fafafa"></path><path d="M215.23,120.42a2.07,2.07,0,1,1-2.06-2.06A2.07,2.07,0,0,1,215.23,120.42Z" style="fill:#fafafa"></path><path d="M198.28,142.48a2.07,2.07,0,1,1-2.06-2.07A2.06,2.06,0,0,1,198.28,142.48Z" style="fill:#fafafa"></path><path d="M178.24,153.65a2.07,2.07,0,1,1-2.06-2.07A2.06,2.06,0,0,1,178.24,153.65Z" style="fill:#fafafa"></path><path d="M221.41,173.09a2.06,2.06,0,1,1-2.06-2.06A2.07,2.07,0,0,1,221.41,173.09Z" style="fill:#fafafa"></path><path d="M190.15,177.59a2.07,2.07,0,1,1-2.06-2.06A2.07,2.07,0,0,1,190.15,177.59Z" style="fill:#fafafa"></path><path d="M268.81,179a2.06,2.06,0,1,1-2.06-2.07A2.06,2.06,0,0,1,268.81,179Z" style="fill:#fafafa"></path><path d="M253.91,219.4a2.07,2.07,0,1,1-2.06-2.07A2.06,2.06,0,0,1,253.91,219.4Z" style="fill:#fafafa"></path><path d="M271.81,158a2.06,2.06,0,1,1-2.06-2.06A2.06,2.06,0,0,1,271.81,158Z" style="fill:#fafafa"></path><path d="M271.67,116.3a2.07,2.07,0,1,1-2.06-2.06A2.07,2.07,0,0,1,271.67,116.3Z" style="fill:#f0f0f0"></path><path d="M309.38,143.91a2.07,2.07,0,1,1-2.06-2.07A2.06,2.06,0,0,1,309.38,143.91Z" style="fill:#f0f0f0"></path><path d="M315,174.33a2.07,2.07,0,1,1-2.06-2.07A2.06,2.06,0,0,1,315,174.33Z" style="fill:#f0f0f0"></path><path d="M246.83,94.28a2.07,2.07,0,1,1-2.07-2.07A2.07,2.07,0,0,1,246.83,94.28Z" style="fill:#f0f0f0"></path><path d="M248.3,125.5a2.06,2.06,0,1,1-2.06-2.06A2.07,2.07,0,0,1,248.3,125.5Z" style="fill:#fafafa"></path><circle cx="248.96" cy="190.43" r="2.06" style="fill:#fafafa"></circle><path d="M293.17,199.29a2.06,2.06,0,1,1-2.06-2.06A2.06,2.06,0,0,1,293.17,199.29Z" style="fill:#fafafa"></path><path d="M195.27,197.09A2.07,2.07,0,1,1,193.2,195,2.07,2.07,0,0,1,195.27,197.09Z" style="fill:#fafafa"></path><path d="M229.54,212a2.07,2.07,0,1,1-2.07-2.06A2.07,2.07,0,0,1,229.54,212Z" style="fill:#fafafa"></path><path d="M285.33,218.85a2.07,2.07,0,1,1-2.07-2.07A2.07,2.07,0,0,1,285.33,218.85Z" style="fill:#fafafa"></path></g></g></svg>