<svg width="24" height="21" viewBox="0 0 24 21" fill="none" xmlns="http://www.w3.org/2000/svg">
<path fill-rule="evenodd" clip-rule="evenodd" d="M11.459 20.3739H14.1327C14.4652 20.3739 14.7837 20.2417 15.0188 20.0067L23.5501 11.4754C23.6664 11.3591 23.7587 11.2211 23.8216 11.0691C23.8846 10.9171 23.917 10.7543 23.917 10.5898C23.917 10.4253 23.8846 10.2624 23.8216 10.1105C23.7587 9.95851 23.6664 9.82045 23.5501 9.70415L15.0188 1.1729C14.9025 1.05646 14.7644 0.964138 14.6123 0.90121C14.4602 0.838281 14.2972 0.80598 14.1327 0.806193L11.459 0.805664C11.2114 0.806037 10.9695 0.879732 10.7637 1.01745C10.5579 1.15517 10.3976 1.35073 10.3028 1.57948C10.2081 1.80824 10.1832 2.05995 10.2314 2.30282C10.2795 2.54569 10.3985 2.76885 10.5734 2.94416L18.0993 10.4701C18.131 10.5019 18.1488 10.5449 18.1488 10.5898C18.1488 10.6347 18.131 10.6777 18.0993 10.7095L10.5734 18.2354C10.3983 18.4106 10.279 18.6338 10.2307 18.8768C10.1825 19.1197 10.2073 19.3716 10.302 19.6004C10.3968 19.8293 10.5573 20.0249 10.7632 20.1626C10.9692 20.3003 11.2113 20.3738 11.459 20.3739ZM1.33633 20.3739H4.01C4.17451 20.3739 4.33741 20.3415 4.48938 20.2785C4.64135 20.2155 4.77939 20.1231 4.89562 20.0067L13.4269 11.4754C13.5432 11.3591 13.6355 11.2211 13.6984 11.0691C13.7614 10.9171 13.7938 10.7543 13.7938 10.5898C13.7938 10.4253 13.7614 10.2624 13.6984 10.1105C13.6355 9.95851 13.5432 9.82045 13.4269 9.70415L4.89562 1.1729C4.77942 1.05647 4.64137 0.96414 4.48939 0.90121C4.33741 0.838279 4.17449 0.805992 4.01 0.806193L1.33633 0.805664C1.08857 0.805672 0.846382 0.879122 0.640372 1.01676C0.434362 1.15439 0.273783 1.35004 0.178937 1.57892C0.0840908 1.8078 0.0592351 2.05965 0.107512 2.30265C0.155789 2.54566 0.275031 2.76892 0.450164 2.94416L7.97608 10.4701C8.00777 10.5019 8.02556 10.5449 8.02556 10.5898C8.02556 10.6347 8.00777 10.6777 7.97608 10.7095L0.450164 18.2354C0.275031 18.4107 0.155789 18.6339 0.107512 18.8769C0.0592351 19.1199 0.0840908 19.3718 0.178937 19.6006C0.273783 19.8295 0.434362 20.0252 0.640372 20.1628C0.846382 20.3004 1.08857 20.3739 1.33633 20.3739Z" fill="url(#paint0_linear_247_636)"/>
<defs>
<linearGradient id="paint0_linear_247_636" x1="0.0834961" y1="10.5898" x2="23.917" y2="10.5898" gradientUnits="userSpaceOnUse">
<stop stop-color="#F9B7BC"/>
<stop offset="0.5" stop-color="#771A8B"/>
<stop offset="1" stop-color="#A234FD"/>
</linearGradient>
</defs>
</svg>
